<svg xmlns="http://www.w3.org/2000/svg" width="80" height="80"><defs><linearGradient id="a" x1="0%" x2="100%" y1="100%" y2="0%"><stop offset="0%" stop-color="#C8511B"/><stop offset="100%" stop-color="#F90"/></linearGradient></defs><g fill="none" fill-rule="evenodd"><path fill="url(#a)" d="M0 0h80v80H0z"/><path fill="#FFF" d="M52 56.523v-4.846l3-1.2v4.846l-3 1.2Zm-5-6.046 3 1.2v4.846l-3-1.2v-4.846Zm-6 13.046v-4.846l3-1.2v4.846l-3 1.2Zm-5-6.046 3 1.2v4.846l-3-1.2v-4.846Zm-6-.954v-4.846l3-1.2v4.846l-3 1.2Zm-5-6.046 3 1.2v4.846l-3-1.2v-4.846Zm4-2.4 2.308.923-2.308.923L26.692 49 29 48.077Zm11 7 2.308.923-2.308.923L37.692 56 40 55.077Zm11-7 2.308.923-2.308.923L48.692 49 51 48.077Zm5.371-.006-5-2a1.011 1.011 0 0 0-.742 0l-5 2c-.38.153-.629.52-.629.929v5.923l-4.629-1.852a1.011 1.011 0 0 0-.742 0L35 54.923V49c0-.409-.249-.776-.629-.929l-5-2a1.011 1.011 0 0 0-.742 0l-5 2c-.38.153-.629.52-.629.929v7c0 .409.249.776.629.929l5 2a1.01 1.01 0 0 0 .742 0L34 57.077V63c0 .409.249.776.629.929l5 2a1.01 1.01 0 0 0 .742 0l5-2c.38-.153.629-.52.629-.929v-5.923l4.629 1.852a1.01 1.01 0 0 0 .742 0l5-2c.38-.153.629-.52.629-.929v-7c0-.409-.249-.776-.629-.929ZM65 35.938c0 5.845-12.881 9-25 9s-25-3.155-25-9c0-2.791 3.095-5.248 8.715-6.919l.57 1.917C19.791 32.272 17 34.189 17 35.938c0 3.311 9.445 7 23 7s23-3.689 23-7c0-1.749-2.791-3.666-7.285-5.002l.57-1.917C61.905 30.69 65 33.147 65 35.938ZM40 17.071 50.214 21 40 24.929 29.786 21 40 17.071Zm10.58 19.771c-1.886.844-5.052 1.827-9.58 1.959V26.687l11-4.23v12.191c0 .951-.556 1.812-1.42 2.194ZM28 34.648V22.457l11 4.23v12.114c-4.528-.132-7.694-1.115-9.584-1.961A2.393 2.393 0 0 1 28 34.648Zm.604 4.019c2.201.985 5.965 2.16 11.396 2.16 5.431 0 9.195-1.175 11.393-2.158A4.394 4.394 0 0 0 54 34.648V21c0-.414-.255-.785-.641-.934l-13-5a1.01 1.01 0 0 0-.718 0l-13 5c-.386.149-.641.52-.641.934v13.648a4.391 4.391 0 0 0 2.604 4.019Z"/></g></svg>