<svg xmlns="http://www.w3.org/2000/svg" width="80" height="80"><defs><linearGradient id="a" x1="0%" x2="100%" y1="100%" y2="0%"><stop offset="0%" stop-color="#BD0816"/><stop offset="100%" stop-color="#FF5252"/></linearGradient></defs><g fill="none" fill-rule="evenodd"><path fill="url(#a)" d="M0 0h80v80H0z"/><path fill="#FFF" d="M59.61 59.179 39.508 20h5.75l20.106 39.179H59.61Zm8.279.543-21.13-41.178a.997.997 0 0 0-.89-.544h-8a1 1 0 0 0-.89 1.457l21.13 41.179c.172.333.516.543.89.543h8a.998.998 0 0 0 .89-1.457Zm-20.29-.543L32.215 30.332l3.15-5.211 17.976 34.058h-5.742Zm-11.29-36.555a1 1 0 0 0-.854-.533.996.996 0 0 0-.885.482l-4.36 7.211a1 1 0 0 0-.028.988L46.117 60.65c.174.325.514.529.883.529h8a1 1 0 0 0 .884-1.467L36.31 22.624ZM14.774 59.179 28.885 35.84l2.875 5.389-6.626 11.449A1.002 1.002 0 0 0 26 54.179h12.667l2.666 5h-26.56Zm25.376-6.471a1.003 1.003 0 0 0-.883-.529H27.734l6.035-10.429a.999.999 0 0 0 .018-.971l-3.964-7.433a1.003 1.003 0 0 0-.856-.529.958.958 0 0 0-.882.482L12.144 59.661A1.003 1.003 0 0 0 13 61.179h30a1 1 0 0 0 .882-1.471l-3.733-7Z"/></g></svg>