<svg xmlns="http://www.w3.org/2000/svg" width="80" height="80"><defs><linearGradient id="a" x1="0%" x2="100%" y1="100%" y2="0%"><stop offset="0%" stop-color="#2E27AD"/><stop offset="100%" stop-color="#527FFF"/></linearGradient></defs><g fill="none" fill-rule="evenodd"><path fill="url(#a)" d="M0 0h80v80H0z"/><path fill="#FFF" d="m62 53.417-21 11.87V57h-2v8.287l-21-11.87V27.805l6.47 4.044 1.06-1.697-6.559-4.1L40.479 14.15l20.493 11.835-7.457 4.142.97 1.749L62 27.7v25.717Zm1.5-28.283-22.511-13a1.003 1.003 0 0 0-.984-.01l-23.489 13A1 1 0 0 0 16 26v28a1 1 0 0 0 .508.87l23 13A.989.989 0 0 0 40 68c.17 0 .34-.042.492-.13l23-13A1 1 0 0 0 64 54V26a1 1 0 0 0-.5-.866ZM51 46.64l-10 5.774V40.619l10-5v11.02Zm-10.705-7.905-9.711-5.612 9.393-4.978 9.922 5.788-9.604 4.802ZM39 52.414 29 46.64V34.517l10 5.779v12.118Zm13.504-19.277-12-7a.997.997 0 0 0-.973-.02l-12 6.36a1.001 1.001 0 0 0-.531.884v13.856a1 1 0 0 0 .5.867l12 6.928a1 1 0 0 0 1 0l12-6.928a1 1 0 0 0 .5-.867V34a.998.998 0 0 0-.496-.863Z"/></g></svg>