<svg xmlns="http://www.w3.org/2000/svg" width="80" height="80"><defs><linearGradient id="a" x1="0%" x2="100%" y1="100%" y2="0%"><stop offset="0%" stop-color="#BD0816"/><stop offset="100%" stop-color="#FF5252"/></linearGradient></defs><g fill="none" fill-rule="evenodd"><path fill="url(#a)" d="M0 0h80v80H0z"/><path fill="#FFF" d="M34 51h3v-2h-3v2Zm-9 0h7v-2h-7v2Zm0-5h11v-2H25v2Zm40 12V39h-2v14a1 1 0 0 1-1 1H42a1 1 0 0 1-1-1V39H22v19h43Zm-20.926-6h15.844c-.438-3.017-2.74-5.716-5.766-6.675a5.678 5.678 0 0 1-2.201.454c-.754 0-1.5-.157-2.195-.447-3.036.967-5.274 3.619-5.682 6.668Zm9.635-8.67a3.582 3.582 0 0 0 1.885-3.145c0-1.987-1.634-3.604-3.643-3.604-2.008 0-3.641 1.617-3.641 3.604 0 1.308.719 2.513 1.877 3.146a3.717 3.717 0 0 0 3.522-.001ZM61 33H43v15.75a10.4 10.4 0 0 1 4.808-4.784 5.558 5.558 0 0 1-1.498-3.781c0-3.09 2.531-5.604 5.641-5.604 3.111 0 5.643 2.514 5.643 5.604a5.55 5.55 0 0 1-1.49 3.767A10.48 10.48 0 0 1 61 48.787V33Zm-39-5v9h19v-5a1 1 0 0 1 1-1h20a1 1 0 0 1 1 1v5h2v-9H22Zm45-1v32a1 1 0 0 1-1 1H21a1 1 0 0 1-1-1V27a1 1 0 0 1 1-1h45a1 1 0 0 1 1 1ZM16 52h2v2h-3a1 1 0 0 1-1-1V21a1 1 0 0 1 1-1h46a1 1 0 0 1 1 1v3h-2v-2H16v30Z"/></g></svg>