<svg xmlns="http://www.w3.org/2000/svg" width="80" height="80"><defs><linearGradient id="a" x1="0%" x2="100%" y1="100%" y2="0%"><stop offset="0%" stop-color="#2E27AD"/><stop offset="100%" stop-color="#527FFF"/></linearGradient></defs><g fill="none" fill-rule="evenodd"><path fill="url(#a)" d="M0 0h80v80H0z"/><path fill="#FFF" d="m68.024 29.02-3.221.756 2.521 2.828c-.188.374-.44.677-.756.91a2.319 2.319 0 0 1-1.065.434l-1.959-3.388-1.96 3.388a2.323 2.323 0 0 1-1.065-.434 2.49 2.49 0 0 1-.756-.91l2.521-2.828-3.22-.756a2.372 2.372 0 0 1-.057-.448c0-.635.243-1.195.729-1.68l3.023 1.484-.391-3.612a2.828 2.828 0 0 1 1.176-.252c.429 0 .821.084 1.175.252l-.391 3.612 3.023-1.484c.486.485.729 1.045.729 1.68 0 .112-.019.261-.056.448ZM52.93 52.278c1.503 0 3.171-.3 5.002-.902v1.927c-1.694.765-3.402 1.148-5.125 1.148-3.171 0-5.575-.909-7.216-2.726-1.639-1.818-2.46-4.49-2.46-8.016 0-3.499.834-6.17 2.501-8.016 1.667-1.844 4.086-2.767 7.257-2.767 1.695 0 3.294.328 4.797.984v1.927a14.928 14.928 0 0 0-4.674-.738c-2.596 0-4.475.663-5.636 1.988-1.163 1.327-1.744 3.452-1.744 6.376v.492c0 2.843.588 4.94 1.764 6.294 1.175 1.353 3.02 2.029 5.534 2.029ZM31 13c10.767 0 18 3.103 18 6s-7.233 6-18 6c-10.642 0-17-3.051-17-6s6.358-6 17-6Zm18 49c0 2.897-7.233 6-18 6-8.357 0-17-2.244-17-6V51.883C16.973 54.44 23.075 56 31 56c4.092 0 7.981-.435 11.244-1.256l-.489-1.94C38.65 53.586 34.93 54 31 54c-8.357 0-17-2.23-17-5.963V37.8c3.001 2.584 9.168 4.2 17 4.2 4.088 0 7.977-.439 11.246-1.27l-.493-1.938C38.643 39.583 34.924 40 31 40c-10.642 0-17-3.051-17-6V22.8c3.001 2.584 9.168 4.2 17 4.2 7.258 0 14.578-1.468 18-4.304V26h2v-7c0-5.252-10.062-8-20-8-11.187 0-19 3.29-19 8v43c0 4.785 7.635 8 19 8 9.938 0 20-2.748 20-8v-2h-2v2Z"/></g></svg>