<svg xmlns="http://www.w3.org/2000/svg" width="80" height="80"><defs><linearGradient id="a" x1="0%" x2="100%" y1="100%" y2="0%"><stop offset="0%" stop-color="#1B660F"/><stop offset="100%" stop-color="#6CAE3E"/></linearGradient></defs><g fill="none" fill-rule="evenodd"><path fill="url(#a)" d="M0 0h80v80H0z"/><path fill="#FFF" d="M26 21c1.654 0 3 1.346 3 3s-1.346 3-3 3-3-1.346-3-3 1.346-3 3-3Zm0 8c1.042 0 2.01-.322 2.812-.87l4.288 3.43a17.564 17.564 0 0 0-.637 1.643l1.902.619c2.002-6.149 7.467-10.384 13.922-10.786l-.125-1.996c-5.988.374-11.216 3.676-14.141 8.696l-3.816-3.053A4.962 4.962 0 0 0 31 24c0-2.757-2.243-5-5-5s-5 2.243-5 5 2.243 5 5 5Zm-8 14c-1.654 0-3-1.346-3-3s1.346-3 3-3 3 1.346 3 3-1.346 3-3 3Zm4.898-2h17.691a8.982 8.982 0 0 0 2.182 4.594 8.995 8.995 0 0 0 6.758 3.022 9.025 9.025 0 0 0 8.436-5.784L56.1 42.11a7.02 7.02 0 0 1-6.975 4.494 7.003 7.003 0 0 1-4.862-2.342 7.014 7.014 0 0 1-1.782-5.095 7.012 7.012 0 0 1 2.343-4.861 7.033 7.033 0 0 1 5.094-1.782 7.028 7.028 0 0 1 6.435 5.283l1.937-.498a9.021 9.021 0 0 0-8.259-6.782 8.96 8.96 0 0 0-6.539 2.287A8.99 8.99 0 0 0 40.491 39H22.898A5.007 5.007 0 0 0 18 35c-2.757 0-5 2.243-5 5s2.243 5 5 5a5.007 5.007 0 0 0 4.898-4Zm41.997-3.31a15.64 15.64 0 0 0-1.106-4.889l1.854-.75a17.62 17.62 0 0 1 1.248 5.514l-1.996.125Zm-.319 4.281 1.955.421a17.53 17.53 0 0 1-2.718 6.289l-1.647-1.135a15.537 15.537 0 0 0 2.41-5.575ZM53 41h14v-2H53v2Zm-2.977 9.112.125 1.996c-.273.017-.545.026-.816.026-5.877 0-11.132-3.967-12.681-9.692l1.93-.522c1.374 5.076 6.209 8.528 11.442 8.192Zm-1.365-24.223c6.44-.395 12.175 3.867 13.619 10.154l-1.949.448c-1.224-5.328-6.093-8.934-11.545-8.606-5.271.329-9.619 4.359-10.339 9.582l-1.98-.273c.848-6.162 5.976-10.917 12.194-11.305ZM26 59c-1.654 0-3-1.346-3-3s1.346-3 3-3 3 1.346 3 3-1.346 3-3 3Zm24.24-4.702a15.67 15.67 0 0 1-14.927-8.505l-1.781.912c.247.483.523.946.81 1.4l-4.951 4.243A4.97 4.97 0 0 0 26 51c-2.757 0-5 2.243-5 5s2.243 5 5 5 5-2.243 5-5c0-.721-.16-1.403-.437-2.023l4.941-4.235a17.664 17.664 0 0 0 14.861 6.552 17.58 17.58 0 0 0 9.668-3.627l-1.22-1.584a15.594 15.594 0 0 1-8.573 3.215Z"/></g></svg>