<svg xmlns="http://www.w3.org/2000/svg" width="80" height="80"><defs><linearGradient id="a" x1="0%" x2="100%" y1="100%" y2="0%"><stop offset="0%" stop-color="#2E27AD"/><stop offset="100%" stop-color="#527FFF"/></linearGradient></defs><g fill="none" fill-rule="evenodd"><path fill="url(#a)" d="M0 0h80v80H0z"/><path fill="#FFF" d="M30 31h5v-2h-5v2Zm6.667 30.166-1.85-.759 7.592-18.522 1.85.759-7.592 18.522Zm8.904-5.386 5.497-4.822-5.493-4.761 1.311-1.512 6.359 5.513a1.002 1.002 0 0 1 .004 1.508l-6.359 5.578-1.319-1.504Zm-20.062-4.732a.996.996 0 0 1 .338-.755l6.337-5.602 1.324 1.499-5.479 4.843 5.449 4.697-1.307 1.515-6.316-5.446a1 1 0 0 1-.346-.751ZM62.535 35h-44.07A3.469 3.469 0 0 1 15 31.536V31h12v-2H15V18.464A3.469 3.469 0 0 1 18.465 15h44.07A3.469 3.469 0 0 1 66 18.464V29H38v2h28v.536A3.469 3.469 0 0 1 62.535 35ZM22 66h36V37H22v29Zm40.535-53h-44.07A5.47 5.47 0 0 0 13 18.464v13.072A5.47 5.47 0 0 0 18.465 37H20v30a1 1 0 0 0 1 1h38a1 1 0 0 0 1-1V37h2.535A5.47 5.47 0 0 0 68 31.536V18.464A5.47 5.47 0 0 0 62.535 13Z"/></g></svg>