<svg xmlns="http://www.w3.org/2000/svg" width="80" height="80"><defs><linearGradient id="a" x1="0%" x2="100%" y1="100%" y2="0%"><stop offset="0%" stop-color="#055F4E"/><stop offset="100%" stop-color="#56C0A7"/></linearGradient></defs><g fill="none" fill-rule="evenodd"><path fill="url(#a)" d="M0 0h80v80H0z"/><path fill="#FFF" d="M59.505 66.5a3.495 3.495 0 0 1-3.491-3.491 3.495 3.495 0 0 1 3.491-3.491 3.495 3.495 0 0 1 3.491 3.491 3.495 3.495 0 0 1-3.491 3.491Zm-29.631 0a3.495 3.495 0 0 1-3.491-3.491 3.495 3.495 0 0 1 3.491-3.491 3.495 3.495 0 0 1 3.491 3.491 3.495 3.495 0 0 1-3.491 3.491Zm-9.106-21.814c.365-.273.698-.587.985-.941l7.175 3.861v9.999a5.481 5.481 0 0 0-1.054.295l-7.106-13.214ZM14 40.29a3.495 3.495 0 0 1 3.49-3.491 3.496 3.496 0 0 1 3.492 3.491 3.496 3.496 0 0 1-3.492 3.491A3.495 3.495 0 0 1 14 40.29Zm13.91-17.677c.325.125.665.22 1.018.282v9.985L21.7 36.771a5.523 5.523 0 0 0-.932-.876l7.142-13.282ZM29.874 14a3.495 3.495 0 0 1 3.491 3.491 3.495 3.495 0 0 1-3.491 3.491 3.495 3.495 0 0 1-3.491-3.491A3.495 3.495 0 0 1 29.874 14Zm11.365 12.255-6.425-6.381c.203-.419.357-.865.449-1.335h18.986a5.5 5.5 0 0 0 .16.628l-13.17 7.088Zm-10.311 5.549v-8.926a5.471 5.471 0 0 0 2.685-1.377l5.785 5.745-8.47 4.558Zm8.466 21.434-5.791 5.752a5.471 5.471 0 0 0-2.675-1.368v-8.94l8.466 4.556Zm14.91 8.024a5.445 5.445 0 0 0-.202.795H35.277a5.454 5.454 0 0 0-.469-1.444l6.427-6.384 13.069 7.033ZM59.637 14a3.495 3.495 0 0 1 3.491 3.491 3.495 3.495 0 0 1-3.491 3.491 3.495 3.495 0 0 1-3.491-3.491A3.495 3.495 0 0 1 59.637 14Zm-.132 43.518a5.477 5.477 0 0 0-4.231 1.996l-12.556-6.758 1.092-1.084-1.41-1.419-1.524 1.513-9.948-5.354V43.64h-2v1.695l-6.219-3.346c.08-.244.141-.496.186-.754h16.174v-2H22.878a5.608 5.608 0 0 0-.197-.722l6.247-3.362v1.68h2v-2.757l9.952-5.356 1.52 1.509 1.41-1.419-1.088-1.08 12.637-6.802a5.48 5.48 0 0 0 4.278 2.056 5.497 5.497 0 0 0 5.491-5.491A5.497 5.497 0 0 0 59.637 12c-2.703 0-4.95 1.964-5.403 4.539H35.276C34.824 13.964 32.577 12 29.874 12a5.497 5.497 0 0 0-5.491 5.491c0 1.616.706 3.067 1.82 4.072l-7.23 13.445a5.46 5.46 0 0 0-1.483-.209A5.497 5.497 0 0 0 12 40.29a5.497 5.497 0 0 0 5.49 5.491c.515 0 1.011-.076 1.483-.209l7.202 13.391a5.468 5.468 0 0 0-1.792 4.046 5.497 5.497 0 0 0 5.491 5.491 5.499 5.499 0 0 0 5.389-4.443h18.853a5.5 5.5 0 0 0 5.389 4.443 5.497 5.497 0 0 0 5.491-5.491 5.497 5.497 0 0 0-5.491-5.491ZM55.02 44.162a3.805 3.805 0 0 1-3.801-3.801 3.805 3.805 0 0 1 3.801-3.801c2.095 0 3.8 1.705 3.8 3.801a3.805 3.805 0 0 1-3.8 3.801Zm0-9.602a5.808 5.808 0 0 0-5.801 5.801 5.807 5.807 0 0 0 5.801 5.801c3.198 0 5.8-2.602 5.8-5.801a5.808 5.808 0 0 0-5.8-5.801Zm11.482 7.402h-1.678a1 1 0 0 0-.966.744 9.09 9.09 0 0 1-.933 2.244.999.999 0 0 0 .157 1.21l1.19 1.189-2.265 2.263-1.189-1.188a.998.998 0 0 0-1.209-.157 9.11 9.11 0 0 1-2.245.932 1 1 0 0 0-.744.967v1.678h-3.201v-1.678a1 1 0 0 0-.744-.967 9.103 9.103 0 0 1-2.244-.932.999.999 0 0 0-1.21.157l-1.189 1.188-2.264-2.263 1.189-1.189a.999.999 0 0 0 .157-1.21 9.087 9.087 0 0 1-.932-2.244 1 1 0 0 0-.967-.744h-1.678v-3.201h1.678a1 1 0 0 0 .967-.744 9.11 9.11 0 0 1 .932-2.245.999.999 0 0 0-.157-1.21l-1.188-1.188 2.263-2.264 1.189 1.188a1 1 0 0 0 1.21.158 9.033 9.033 0 0 1 2.244-.932 1 1 0 0 0 .744-.967v-1.679h3.201v1.679a1 1 0 0 0 .744.967 9.04 9.04 0 0 1 2.245.932.998.998 0 0 0 1.209-.158l1.189-1.188 2.264 2.264-1.189 1.188a.999.999 0 0 0-.157 1.21c.411.707.726 1.463.933 2.245a.998.998 0 0 0 .966.744h1.678v3.201Zm.481-5.201h-1.417a11.32 11.32 0 0 0-.544-1.309l1.003-1.004a1.522 1.522 0 0 0 0-2.149l-2.943-2.943a1.522 1.522 0 0 0-2.149 0l-1.004 1.003a11.07 11.07 0 0 0-1.309-.543v-1.418c0-.838-.681-1.52-1.52-1.52h-4.16c-.839 0-1.521.682-1.521 1.52v1.418a11.14 11.14 0 0 0-1.309.543l-1.003-1.003a1.523 1.523 0 0 0-2.15 0l-2.942 2.943a1.52 1.52 0 0 0 0 2.149l1.003 1.004c-.209.425-.391.862-.544 1.309h-1.417c-.838 0-1.52.681-1.52 1.52v4.16c0 .839.682 1.521 1.52 1.521h1.417c.153.447.335.884.544 1.309l-1.003 1.003a1.522 1.522 0 0 0 0 2.15l2.942 2.942c.573.572 1.574.574 2.15 0l1.002-1.003c.426.209.864.391 1.31.544v1.417c0 .838.682 1.52 1.521 1.52h4.16c.839 0 1.52-.682 1.52-1.52v-1.417c.447-.153.884-.335 1.31-.544l1.003 1.003c.575.575 1.576.573 2.149 0l2.943-2.942a1.523 1.523 0 0 0 0-2.15l-1.003-1.003c.209-.425.39-.862.544-1.309h1.417c.837 0 1.519-.682 1.519-1.521v-4.16c0-.839-.682-1.52-1.519-1.52Z"/></g></svg>