<svg xmlns="http://www.w3.org/2000/svg" width="80" height="80"><defs><linearGradient id="a" x1="0%" x2="100%" y1="100%" y2="0%"><stop offset="0%" stop-color="#2E27AD"/><stop offset="100%" stop-color="#527FFF"/></linearGradient></defs><g fill="none" fill-rule="evenodd"><path fill="url(#a)" d="M0 0h80v80H0z"/><path fill="#FFF" d="M43.441 42.611c-.528.3-1.11.532-1.745.699a7.463 7.463 0 0 1-1.894.248c-1.089 0-1.914-.302-2.474-.91-.562-.606-.842-1.49-.842-2.655 0-1.097.293-1.974.879-2.63.585-.657 1.365-.985 2.339-.985 2.441 0 3.687 1.962 3.737 5.885v.348Zm-3.688-8.278c-1.138 0-2.145.254-3.02.76a5.22 5.22 0 0 0-2.017 2.07c-.47.872-.705 1.867-.705 2.98 0 1.68.466 3 1.398 3.965.932.964 2.199 1.445 3.8 1.445.758 0 1.501-.112 2.227-.336a7.476 7.476 0 0 0 1.98-.935c-.116 2.062-.581 3.583-1.399 4.563-.816.982-2.016 1.472-3.6 1.472-1.139 0-2.385-.308-3.738-.923v1.895c1.089.714 2.45 1.072 4.084 1.072 2.277 0 4.034-.84 5.272-2.518 1.237-1.68 1.856-4.081 1.856-7.206 0-2.71-.524-4.771-1.572-6.184-1.048-1.413-2.569-2.12-4.566-2.12Zm17.122 21.652H22.956c-4.761-.004-8.688-3.506-8.939-7.967A10.689 10.689 0 0 1 14 47.39c0-5.742 4.086-7.67 6.581-8.31l.039-.007c.511-.105.856-.59.792-1.111a12.451 12.451 0 0 1-.094-1.54c0-4.627 3.29-9.61 7.49-11.341 5.061-2.087 10.419-1.047 14.337 2.78 1.527 1.492 2.718 3.397 3.54 5.662.126.346.428.595.789.65.361.054.723-.091.946-.383 1.228-1.621 3.215-2.301 5.073-1.73 2.159.665 3.557 2.875 3.738 5.914.027.456.356.837.801.928C61.667 39.639 66 41.726 66 47.47c0 7.9-6.985 8.514-9.125 8.514Zm2.284-18.895c-.424-3.525-2.288-6.098-5.082-6.958-2.143-.658-4.399-.169-6.108 1.244-.879-1.927-2.029-3.591-3.431-4.961-4.506-4.402-10.669-5.599-16.488-3.2-4.978 2.054-8.732 7.731-8.732 13.207 0 .308.01.615.028.92C16.627 38.22 12 40.696 12 47.39c0 .25.007.496.02.738.311 5.53 5.113 9.867 10.935 9.872h33.92C62.253 58 68 55.234 68 47.47c0-5.322-3.132-8.986-8.841-10.38Z"/></g></svg>