<svg xmlns="http://www.w3.org/2000/svg" width="80" height="80"><defs><linearGradient id="a" x1="0%" x2="100%" y1="100%" y2="0%"><stop offset="0%" stop-color="#055F4E"/><stop offset="100%" stop-color="#56C0A7"/></linearGradient></defs><g fill="none" fill-rule="evenodd"><path fill="url(#a)" d="M0 0h80v80H0z"/><path fill="#FFF" d="m40.366 46.453.22-2.008c-1.813-.194-3.683 1.674-4.497 4.452-.672 2.294-.408 4.515.67 5.656l1.459-1.39c-.474-.503-.706-1.968-.2-3.696.576-1.965 1.756-3.085 2.348-3.014Zm-19.68.22.206-2.01c-1.887-.196-3.849 1.672-4.713 4.435-.722 2.313-.44 4.55.716 5.698l1.414-1.438c-.5-.497-.744-1.946-.211-3.655.644-2.056 1.917-3.107 2.588-3.03Zm23.098-9.776.815-1.848c-.097-.042-9.64-4.151-15.493 6.22l1.75.997c4.936-8.747 12.603-5.51 12.928-5.369Zm20.912 10.648-.628 1.746-1.056 2.583c-.083.199-.225.36-.4.468l.024.498c.021 1.193-.32 2.165-.983 2.842-.44.45-1.008.74-1.674.906l-.108.247.604-.001c2.562-.017 4.215-.752 4.911-2.185 1.021-2.1.721-4.745-.69-7.104Zm2.498 7.99c-.73 1.5-2.483 3.291-6.705 3.319a87.728 87.728 0 0 1-2.175-.015 1.007 1.007 0 0 1-.828-.468 1.015 1.015 0 0 1-.071-.95l.296-.672H45.697c-1.244 0-2.352-.463-3.045-1.269a3.076 3.076 0 0 1-.608-1.107c-.429.805-.905 1.506-1.425 2.098-.86.98-2.643 2.417-4.47 2.417-.307 0-.615-.042-.92-.131-3.026-.895-4.116-5.646-2.532-11.052 1.591-5.429 5.193-8.988 8.204-8.095.312.093.611.231.889.412l-1.09 1.697a1.421 1.421 0 0 0-.367-.171c-1.617-.479-4.369 2.163-5.707 6.727-1.321 4.513-.462 8.062 1.17 8.543.913.27 2.403-.643 3.315-1.682.973-1.109 1.779-2.734 2.393-4.83.604-2.064.793-4.137.53-5.83a1.01 1.01 0 0 1 .809-1.149 1.007 1.007 0 0 1 1.167.775c.502 2.28.476 5.329-.078 9.057-.061.406.021.743.244 1.002.305.356.873.568 1.52.568H58.73c.687 0 1.188-.156 1.489-.463.28-.287.418-.744.407-1.36l-.02-.407-1.38-.001a1.012 1.012 0 0 1-.973-1.264l.172-.663c.02-.08.052-.159.091-.231l-4.877-.084c-.647 0-1.244.335-1.585.882l-.165.61c-.118.44-.517.746-.97.746l-3.985-.001a1.011 1.011 0 0 1-1.146-.675c-.154-.445-.307-1.116-.504-1.965-.196-.844-.438-1.894-.738-2.961l1.935-.549c.314 1.113.562 2.189.762 3.053.092.397.177.766.255 1.077h2.652c.02-.074.049-.146.086-.213a3.879 3.879 0 0 1 3.403-2.024h4.828a2.05 2.05 0 0 1 1.78 1.019c.223.379.318.805.283 1.224h.878l.785-1.915.726-2.024c.569-1.59.967-3.252 1.182-4.94l.875-7.81c.258-2.023-.207-3.893-1.31-5.282-1.134-1.43-2.78-2.272-4.515-2.31a.901.901 0 0 1-.187-.023l-3.425-.057c-.182-.012-2.833-.197-4.85 2.41a1.006 1.006 0 0 1-1.8-.643c.02-.823.695-2.34 2.184-3.442C36.616 22.5 30.75 27.606 28.49 31.027l-1.896 3.374a1.04 1.04 0 0 1-.104.152c-1.032 1.235-2.96 2.681-6.236 2.591-2.57.164-4.422 1.484-5.417 3.92-.24.664-.479 1.454-.498 1.655-.01.1-.034.21-.072.312-.066.345-.113.678-.148.99.275-.231.543-.453.802-.666a1.001 1.001 0 0 1 1.306.028c.37.331.444.882.176 1.3a15.181 15.181 0 0 0-1.66 3.61c-.238.764-.42 1.545-.536 2.317l-.144 1.555c-.239 2.582.306 4.153 1.62 4.67 1.265.496 2.739-.4 3.618-1.317 1.226-1.285 2.263-3.142 2.915-5.228.931-2.982.91-5.99-.051-7.663l1.742-1.01c1.25 2.172 1.337 5.727.228 9.277a17.303 17.303 0 0 1-1.654 3.71h7.452v2.02h-8.92c-.088.098-.174.2-.262.292C19.695 58.02 18.122 59 16.458 59a4.078 4.078 0 0 1-1.507-.285c-1.546-.608-3.303-2.27-2.89-6.733.004-.052.032-.35.153-1.618a17.653 17.653 0 0 1 .75-3.1 1.007 1.007 0 0 1-.913-.92c-.006-.073-.145-1.78.269-3.836.01-.05.024-.097.04-.144.105-.615.446-1.598.603-2.03 1.309-3.205 3.814-4.992 7.26-5.207 1.284.037 2.377-.194 3.281-.685H12.862v-2.02h12.537l1.38-2.45c.122-.186.258-.378.4-.572h-5.256v-2.02h7.025c1.128-1.08 2.582-2.146 4.443-3.042H17.89v-2.02h22.182v.036c4-.6 9.047-.501 15.413.79.466.095.797.501.807.968l2.83.046c.068.001.134.01.2.024 2.286.09 4.437 1.202 5.918 3.067 1.444 1.82 2.06 4.229 1.733 6.783l-.875 7.81a25.63 25.63 0 0 1-.645 3.278c2.575 3.225 3.277 7.256 1.74 10.416ZM56.632 41.508c1.094-.026 1.947-.798 2.078-1.839l.191-1.501a3.316 3.316 0 0 1-2.63 1.314c-.624 0-1.2-.184-1.7-.484l-.018.14c-.077.61.114 1.22.523 1.675.396.442.963.695 1.556.695Zm-1.684-5.376c0 .733.594 1.33 1.323 1.33a1.329 1.329 0 0 0 0-2.659c-.73 0-1.323.596-1.323 1.33Zm.435-3.53-.043.33c.298-.087.606-.149.93-.149 1.37 0 2.545.833 3.058 2.018l.212-1.667a2.11 2.11 0 0 0-.522-1.677 2.089 2.089 0 0 0-1.554-.694h-.052a2.086 2.086 0 0 0-2.03 1.839Zm1.344 10.925c-1.258 0-2.368-.496-3.144-1.361a4.13 4.13 0 0 1-1.025-3.284l.829-6.536a4.091 4.091 0 0 1 3.975-3.601 4.056 4.056 0 0 1 3.15 1.36 4.136 4.136 0 0 1 1.024 3.283v.001l-.83 6.536a4.093 4.093 0 0 1-3.975 3.602h-.004Z"/></g></svg>