<svg xmlns="http://www.w3.org/2000/svg" width="80" height="80"><defs><linearGradient id="a" x1="0%" x2="100%" y1="100%" y2="0%"><stop offset="0%" stop-color="#BD0816"/><stop offset="100%" stop-color="#FF5252"/></linearGradient></defs><g fill="none" fill-rule="evenodd"><path fill="url(#a)" d="M0 0h80v80H0z"/><path fill="#FFF" d="M51.997 52.496h7v-2h-7v2Zm-9 0h7v-2h-7v2Zm-9 0h7v-2h-7v2Zm11-8c0-1.103.898-2 2-2 1.103 0 2 .897 2 2s-.897 2-2 2c-1.102 0-2-.897-2-2Zm6 0c0-2.206-1.793-4-4-4-2.206 0-4 1.794-4 4s1.794 4 4 4c2.207 0 4-1.794 4-4Zm-14-2c1.103 0 2 .897 2 2s-.897 2-2 2c-1.102 0-2-.897-2-2s.898-2 2-2Zm0 6c2.207 0 4-1.794 4-4s-1.793-4-4-4c-2.206 0-4 1.794-4 4s1.794 4 4 4Zm29-15v23a1 1 0 0 1-1 1h-31v-2h30v-21h-22v-2h23a1 1 0 0 1 1 1Zm-35.301 5.047a1 1 0 0 0-.7.953v21.04l-2.398 2.057-2.601-2.973v-2.624a.997.997 0 0 0-.293-.707l-2.292-2.293 2.292-2.293a.997.997 0 0 0 .293-.707v-2a.997.997 0 0 0-.293-.707l-2.292-2.293 2.292-2.293a.997.997 0 0 0 .293-.707v-3.49a.998.998 0 0 0-.698-.953c-5.142-1.63-8.182-6.919-7.07-12.304.803-3.88 3.787-6.99 7.602-7.926 3.249-.797 6.58-.1 9.14 1.907a10.446 10.446 0 0 1 4.026 8.266c0 4.553-3.002 8.685-7.301 10.047Zm9.3-10.047c0-3.864-1.745-7.45-4.79-9.84-3.045-2.389-6.997-3.22-10.851-2.275-4.561 1.117-8.126 4.832-9.084 9.463v.001C14 31.99 17.3 38.035 22.997 40.215v2.367L20.29 45.29a1 1 0 0 0 0 1.414l2.707 2.707v1.172L20.29 53.29a1 1 0 0 0 0 1.414l2.707 2.707v2.586c0 .242.088.476.248.66l3.5 4a1 1 0 0 0 1.403.1l3.5-3a.998.998 0 0 0 .349-.76V40.204c4.746-1.832 8-6.542 8-11.708Zm-12.5 2.37a2.503 2.503 0 0 1-2.5-2.5c0-1.378 1.123-2.5 2.5-2.5 1.38 0 2.5 1.122 2.5 2.5 0 1.38-1.12 2.5-2.5 2.5Zm0-7a4.505 4.505 0 0 0-4.5 4.5c0 2.482 2.02 4.5 4.5 4.5 2.483 0 4.5-2.018 4.5-4.5 0-2.48-2.017-4.5-4.5-4.5Z"/></g></svg>