<svg xmlns="http://www.w3.org/2000/svg" width="80" height="80"><defs><linearGradient id="a" x1="0%" x2="100%" y1="100%" y2="0%"><stop offset="0%" stop-color="#1B660F"/><stop offset="100%" stop-color="#6CAE3E"/></linearGradient></defs><g fill="none" fill-rule="evenodd"><path fill="url(#a)" d="M0 0h80v80H0z"/><path fill="#FFF" d="m63.588 39.998-.743-.666-6.586 6.398c-.051-.004-.099-.015-.15-.015a1.88 1.88 0 0 0-1.879 1.879 1.88 1.88 0 0 0 1.879 1.879 1.881 1.881 0 0 0 1.843-2.235l5.636-7.24Zm-4.636.958.742-1.858a9.629 9.629 0 0 0-3.585-.689c-5.465 0-9.911 4.515-9.911 10.064h2c0-4.447 3.549-8.064 7.911-8.064.979 0 1.935.184 2.843.547Zm5.204 1.68-1.632 1.155a8.066 8.066 0 0 1 1.495 4.682h2c0-2.097-.644-4.115-1.863-5.837Zm-27.724 5.837h2.084l3.476-5.077-.938-1.325-4.622 6.402Zm12.552-14.707h-2.055l-3.933 5.613-1.052 1.458 2.992 4.286a9.26 9.26 0 0 1 .718-2.08l-1.646-2.341 4.976-6.936Zm-6.861 4.368-3.059-4.368h-2.169l4.133 5.826 1.095-1.458Zm-10.124 1.132-2.769-1.061c-.915-.345-1.619-.668-2.11-.971-.492-.301-.845-.638-1.061-1.009-.216-.371-.324-.858-.324-1.462 0-1.07.354-1.894 1.061-2.472.708-.578 1.726-.867 3.055-.867 1.362 0 2.925.31 4.684.931v-1.319a12.236 12.236 0 0 0-2.368-.764A11.335 11.335 0 0 0 29.773 30c-1.674 0-3.025.445-4.051 1.333-1.027.889-1.54 2.049-1.54 3.481 0 1.053.311 1.937.932 2.653.621.717 1.596 1.333 2.924 1.851l3.003 1.165c1.035.397 1.786.846 2.252 1.346.466.501.698 1.104.698 1.812 0 1.156-.426 2.07-1.281 2.743-.853.673-1.997 1.01-3.429 1.01-1.518 0-3.183-.328-4.996-.984v1.32c1.502.725 3.21 1.087 5.125 1.087 1.847 0 3.335-.474 4.465-1.423 1.13-.949 1.695-2.191 1.695-3.728 0-1.052-.284-1.928-.854-2.626-.568-.7-1.475-1.291-2.717-1.774ZM13 30.44h10.068v1.372h-8.541v6.859h7.221v1.372h-7.221v8.334H13V30.44Z"/></g></svg>