<svg xmlns="http://www.w3.org/2000/svg" width="80" height="80"><defs><linearGradient id="a" x1="0%" x2="100%" y1="100%" y2="0%"><stop offset="0%" stop-color="#1B660F"/><stop offset="100%" stop-color="#6CAE3E"/></linearGradient></defs><g fill="none" fill-rule="evenodd"><path fill="url(#a)" d="M0 0h80v80H0z"/><path fill="#FFF" d="M14 51h11v-2H14v2Zm3-6h8v-2h-8v2Zm-4-6h12v-2H13v2Zm33 15h5v-2h-5v2Zm-7 0h5v-2h-5v2Zm-7 0h5v-2h-5v2Zm14-5h5v-2h-5v2Zm-7 0h5v-2h-5v2Zm-7 0h5v-2h-5v2Zm2-9h15v-3H34v3Zm16-5H33a1 1 0 0 0-1 1v5a1 1 0 0 0 1 1h17a1 1 0 0 0 1-1v-5a1 1 0 0 0-1-1ZM29 58h25V32H29v26Zm26 2a1 1 0 0 0 1-1V31a1 1 0 0 0-1-1H28a1 1 0 0 0-1 1v28a1 1 0 0 0 1 1h27Zm-4-44.727L59.43 23H51v-7.727Zm11.676 7.99-12-11A1.003 1.003 0 0 0 50 12H21a1 1 0 0 0-1 1v22h2V14h27v10a1 1 0 0 0 1 1h11v41H22V53h-2v14a1 1 0 0 0 1 1h41a1 1 0 0 0 1-1V24a.998.998 0 0 0-.324-.737Z"/></g></svg>