<svg xmlns="http://www.w3.org/2000/svg" width="80" height="80"><defs><linearGradient id="a" x1="0%" x2="100%" y1="100%" y2="0%"><stop offset="0%" stop-color="#BD0816"/><stop offset="100%" stop-color="#FF5252"/></linearGradient></defs><g fill="none" fill-rule="evenodd"><path fill="url(#a)" d="M0 0h80v80H0z"/><path fill="#FFF" d="M33 41h3v-2h-3v2Zm6 20h2v-3h-2v3Zm0-5h2v-3h-2v3Zm0-10h2v-3h-2v3Zm0 5h2v-3h-2v3ZM28 41h3v-2h-3v2Zm-5 0h3v-2h-3v2Zm-5 0h3v-2h-3v2Zm23 25v-3h-2v3H14V41h2v-2h-2V14h25v25h-1v2h28v25H41Zm0-50.586L64.586 39H41V15.414ZM68 40a1 1 0 0 0-.293-.707l-27-27A1.002 1.002 0 0 0 40 12H13a1 1 0 0 0-1 1v54a1 1 0 0 0 1 1h54a1 1 0 0 0 1-1V40Z"/></g></svg>