<svg xmlns="http://www.w3.org/2000/svg" width="80" height="80"><g fill="none" fill-rule="evenodd"><path fill="#FFF" d="M0 0h80v80H0z"/><path fill="#232F3D" d="M48.98 60.5c0 1.378-1.121 2.5-2.5 2.5a2.503 2.503 0 0 1-2.5-2.5c0-1.378 1.121-2.5 2.5-2.5s2.5 1.122 2.5 2.5ZM55.97 30a1 1 0 0 0-.98.801l-4.297 21.2H20.799L17.96 37.803l-1.96.392 3 15a.998.998 0 0 0 .98.804h27.041l-1.16 2.063c-2.188.305-3.881 2.167-3.881 4.437 0 2.481 2.019 4.5 4.5 4.5s4.5-2.019 4.5-4.5c0-1.936-1.235-3.576-2.954-4.209l1.288-2.29h2.196c.476 0 .886-.336.981-.802L56.788 32h8.192v-2h-9.01ZM26.48 63a2.503 2.503 0 0 1-2.5-2.5c0-1.378 1.121-2.5 2.5-2.5s2.5 1.122 2.5 2.5-1.121 2.5-2.5 2.5Zm0-7a4.505 4.505 0 0 0-4.5 4.5c0 2.481 2.019 4.5 4.5 4.5s4.5-2.019 4.5-4.5c0-2.48-2.019-4.5-4.5-4.5Zm.5-38.345 6 3.464-6 3.464-6-3.464 6-3.464Zm16 0 6 3.464-6 3.464-6-3.464 6-3.464Zm1 15.588v-6.928l6-3.464v6.928l-6 3.464Zm-8 13.901v-6.929l6-3.464v6.93l-6 3.463Zm-8-10.393 6 3.464v6.93l-6-3.465v-6.929Zm6-6.972-6 3.464v-6.928l6-3.464v6.928Zm8 3.464-6-3.464v-6.928l6 3.464v6.928Zm-7 5.24-6.038-3.486 6.038-3.486 6.038 3.486-6.038 3.486Zm-15-15.632 6 3.464v6.928l-6-3.464v-6.928Zm-1.5 8.372 7.5 4.33v8.704a1 1 0 0 0 .5.866l8 4.62a.999.999 0 0 0 1 0l8-4.62a1 1 0 0 0 .5-.866v-8.704l7.5-4.33a1 1 0 0 0 .5-.867V21.12a1 1 0 0 0-.5-.867l-8-4.618a.998.998 0 0 0-1 0l-7.5 4.33-7.5-4.33a.998.998 0 0 0-1 0l-8 4.618a1 1 0 0 0-.5.867v9.237a1 1 0 0 0 .5.867Z"/></g></svg>