<svg xmlns="http://www.w3.org/2000/svg" width="80" height="80"><defs><linearGradient id="a" x1="0%" x2="100%" y1="100%" y2="0%"><stop offset="0%" stop-color="#4D27A8"/><stop offset="100%" stop-color="#A166FF"/></linearGradient></defs><g fill="none" fill-rule="evenodd"><path fill="url(#a)" d="M0 0h80v80H0z"/><path fill="#FFF" d="M55.122 52.123c0-1.654-1.346-3-3-3s-3 1.346-3 3 1.346 3 3 3 3-1.346 3-3Zm2 0c0 2.757-2.243 5-5 5s-5-2.243-5-5 2.243-5 5-5 5 2.243 5 5Zm-26.73-14.431c0-1.654-1.346-3-3-3-1.655 0-3 1.346-3 3s1.345 3 3 3c1.654 0 3-1.346 3-3Zm2 0c0 2.757-2.244 5-5 5-2.757 0-5-2.243-5-5s2.243-5 5-5c2.756 0 5 2.243 5 5Zm7.338-15.685c0 1.654 1.346 3 3 3 1.655 0 3-1.346 3-3 0-1.655-1.345-3-3-3-1.654 0-3 1.345-3 3Zm-2 0c0-2.757 2.244-5 5-5 2.757 0 5 2.243 5 5s-2.243 5-5 5c-2.756 0-5-2.243-5-5ZM66 40c0-9.273-4.972-17.852-12.988-22.491-1.437.29-2.827.687-4.561 1.314l-.68-1.881c.905-.326 1.715-.59 2.495-.816A25.948 25.948 0 0 0 40 14c-1.689 0-3.351.175-4.975.492a31.993 31.993 0 0 1 3.232 2.142l-1.209 1.593c-1.428-1.082-2.908-1.999-4.851-3.017-9.819 3.088-16.891 11.748-18.014 21.918a34.928 34.928 0 0 1 6.231-.698l.049 1.999c-2.3.057-4.276.301-6.436.776-.009.265-.027.533-.027.795a25.939 25.939 0 0 0 11.327 21.447c-1.253-3.731-1.877-7.257-1.877-10.701 0-1.964.338-3.577.695-5.284.083-.395.167-.797.249-1.214l1.963.387c-.084.424-.17.835-.254 1.238-.35 1.672-.653 3.116-.653 4.873 0 3.908.858 7.949 2.604 12.337A25.67 25.67 0 0 0 40 66c2.756 0 5.446-.44 8.012-1.286a33.503 33.503 0 0 0 2.378-6.015l1.921.557a35.683 35.683 0 0 1-1.602 4.421 25.395 25.395 0 0 0 4.574-2.672 36.221 36.221 0 0 0-1.124-2.506l1.789-.895c.348.696.667 1.408.972 2.124C62.705 54.775 66 47.66 66 40Zm2 0c0 8.727-3.966 16.799-10.879 22.149a27.46 27.46 0 0 1-5.532 3.323c-.833.378-1.681.728-2.553 1.022A27.516 27.516 0 0 1 40 68c-4.6 0-9.168-1.146-13.212-3.314A27.951 27.951 0 0 1 12 40c0-.686.018-1.208.059-1.691.681-11.684 8.697-21.797 19.942-25.143A27.668 27.668 0 0 1 40 12a27.87 27.87 0 0 1 13.684 3.579A28.026 28.026 0 0 1 68 40ZM37.314 25.463 36 23.956c-2.242 1.956-3.986 4.033-6.023 7.17l1.678 1.089c1.928-2.971 3.568-4.927 5.659-6.752Zm-3.039 12.964-.65 1.891c4.593 1.577 8.6 4.093 12.609 7.918l1.381-1.447c-4.226-4.031-8.465-6.688-13.34-8.362Zm13.371-11.759c3.752 5.722 5.865 12.003 6.279 18.67l-1.996.124c-.393-6.316-2.396-12.27-5.954-17.697l1.671-1.097Z"/></g></svg>