<svg xmlns="http://www.w3.org/2000/svg" width="80" height="80"><defs><linearGradient id="a" x1="0%" x2="100%" y1="100%" y2="0%"><stop offset="0%" stop-color="#4D27A8"/><stop offset="100%" stop-color="#A166FF"/></linearGradient></defs><g fill="none" fill-rule="evenodd"><path fill="url(#a)" d="M0 0h80v80H0z"/><path fill="#FFF" d="M44.26 51.33c-4.417 0-8.01-3.593-8.01-8.009 0-4.417 3.593-8.01 8.01-8.01s8.01 3.593 8.01 8.01c0 4.416-3.593 8.009-8.01 8.009Zm0-18.019c-5.52 0-10.01 4.49-10.01 10.01 0 5.519 4.49 10.009 10.01 10.009s10.01-4.49 10.01-10.009c0-5.52-4.49-10.01-10.01-10.01Zm20.288 28.035a1.774 1.774 0 0 1-2.496.131l-8.34-7.523a14.366 14.366 0 0 0 2.337-2.641l8.367 7.538c.723.652.781 1.773.132 2.495ZM32.011 43.321c0-6.755 5.495-12.25 12.249-12.25 6.754 0 12.249 5.495 12.249 12.25 0 6.754-5.495 12.249-12.249 12.249-6.754 0-12.249-5.495-12.249-12.249Zm25.052 6.214a14.138 14.138 0 0 0 1.446-6.214c0-7.858-6.392-14.25-14.249-14.25s-14.249 6.392-14.249 14.25c0 7.857 6.392 14.249 14.249 14.249 2.899 0 5.596-.875 7.849-2.368l8.605 7.762a3.75 3.75 0 0 0 2.518.962 3.765 3.765 0 0 0 2.802-1.241 3.777 3.777 0 0 0-.278-5.319l-8.693-7.831ZM67 20v34h-2V21h-8v11h-2V20a1 1 0 0 1 1-1h10a1 1 0 0 1 1 1ZM51 61h2v5a1 1 0 0 1-1 1H42a1 1 0 0 1-1-1v-6h2v5h8v-4Zm-8-35h-2V14a1 1 0 0 1 1-1h10a1 1 0 0 1 1 1v14h-2V15h-8v11Zm-6 33h2v7a1 1 0 0 1-1 1H28a1 1 0 0 1-1-1V51h2v14h8v-6Zm-8-23h-2V23a1 1 0 0 1 1-1h10a1 1 0 0 1 1 1v4h-2v-3h-8v12ZM15 65h8V31h-8v34Zm9-36H14a1 1 0 0 0-1 1v36a1 1 0 0 0 1 1h10a1 1 0 0 0 1-1V30a1 1 0 0 0-1-1Z"/></g></svg>