<svg xmlns="http://www.w3.org/2000/svg" width="80" height="80"><defs><linearGradient id="a" x1="0%" x2="100%" y1="100%" y2="0%"><stop offset="0%" stop-color="#4D27A8"/><stop offset="100%" stop-color="#A166FF"/></linearGradient></defs><g fill="none" fill-rule="evenodd"><path fill="url(#a)" d="M0 0h80v80H0z"/><path fill="#FFF" d="M41.745 41.155C42.713 42.25 44 43.927 44 45.872c0 3.901-3.141 7.075-7 7.075h-8c-3.859 0-7-3.174-7-7.075 0-3.9 3.141-7.075 7-7.075h4v2.022h-4c-2.757 0-5 2.268-5 5.053 0 2.786 2.243 5.053 5 5.053h8c2.757 0 5-2.267 5-5.053 0-1.252-.996-2.523-1.745-3.369l1.49-1.348ZM56 43.851c0 3.9-3.141 7.074-7 7.074h-4v-2.021h4c2.757 0 5-2.267 5-5.053s-2.243-5.054-5-5.054h-8c-2.757 0-5 2.268-5 5.054 0 .9.463 1.822.865 2.526l-1.73 1.012C34.606 46.467 34 45.231 34 43.851c0-3.9 3.141-7.075 7-7.075h8c3.859 0 7 3.175 7 7.075Zm1.28 12.128H22.721c-4.71-.004-8.453-3.393-8.704-7.88-.01-.205-.017-.415-.017-.63 0-5.777 4.112-7.704 6.605-8.341a1.01 1.01 0 0 0 .804-1.146 12.84 12.84 0 0 1-.091-1.514c0-4.642 3.29-9.64 7.49-11.378 5.061-2.091 10.419-1.05 14.337 2.79 1.527 1.496 2.718 3.406 3.54 5.68.126.347.428.596.789.652a1 1 0 0 0 .946-.385c1.228-1.626 3.216-2.31 5.073-1.735 2.159.666 3.558 2.884 3.738 5.932.028.458.356.84.801.931 3.635.74 7.968 2.832 7.968 8.596 0 7.333-5.463 8.428-8.72 8.428Zm1.879-18.842c-.424-3.535-2.288-6.117-5.082-6.979-2.142-.66-4.398-.169-6.107 1.246-.879-1.932-2.03-3.6-3.432-4.975-4.506-4.417-10.669-5.616-16.487-3.209-4.979 2.06-8.733 7.755-8.733 13.248 0 .306.01.614.03.923C16.627 38.27 12 40.755 12 47.47c0 .25.007.496.02.74.313 5.576 4.913 9.785 10.7 9.79h34.56C59.795 58 68 57.247 68 47.55c0-5.34-3.132-9.014-8.841-10.413Z"/></g></svg>