<svg xmlns="http://www.w3.org/2000/svg" width="80" height="80"><defs><linearGradient id="a" x1="0%" x2="100%" y1="100%" y2="0%"><stop offset="0%" stop-color="#B0084D"/><stop offset="100%" stop-color="#FF4F8B"/></linearGradient></defs><g fill="none" fill-rule="evenodd"><path fill="url(#a)" d="M0 0h80v80H0z"/><path fill="#FFF" d="M53.657 66c-2.143 0-3.887-1.753-3.887-3.909 0-2.156 1.744-3.909 3.887-3.909s3.887 1.753 3.887 3.909c0 2.156-1.744 3.909-3.887 3.909Zm-8.524-17H34.798l-5.168-9 5.168-9h10.335l5.167 9-5.167 9ZM27.62 21.818c-2.143 0-3.887-1.753-3.887-3.909 0-2.156 1.744-3.909 3.887-3.909 2.144 0 3.888 1.753 3.888 3.909 0 2.156-1.744 3.909-3.888 3.909Zm26.036 34.364c-.738 0-1.442.143-2.093.394L47.34 49.41l-.223.133L52.31 40.5c.177-.31.177-.69 0-1l-5.741-10a.993.993 0 0 0-.862-.5H35.258l.04-.024-3.871-6.572a5.909 5.909 0 0 0 2.071-4.495c0-3.258-2.636-5.909-5.877-5.909-3.24 0-5.876 2.651-5.876 5.909s2.636 5.909 5.876 5.909c.739 0 1.443-.143 2.094-.394l3.615 6.133-5.71 9.943c-.177.31-.177.69 0 1l5.743 10c.178.31.506.5.861.5h11.482c.083 0 .164-.013.241-.032l3.905 6.628a5.905 5.905 0 0 0-2.071 4.495c0 3.258 2.635 5.909 5.876 5.909 3.24 0 5.876-2.651 5.876-5.909s-2.635-5.909-5.876-5.909Zm5.927-24.078c-2.143 0-3.886-1.753-3.886-3.909 0-2.156 1.743-3.909 3.886-3.909s3.888 1.753 3.888 3.909c0 2.156-1.745 3.909-3.888 3.909Zm7.283 7.396-3.775-6.575a5.909 5.909 0 0 0 2.368-4.73c0-3.258-2.635-5.909-5.876-5.909-.824 0-1.61.173-2.323.484l-3.077-5.361a.994.994 0 0 0-.861-.5H40.995v2h11.754l2.847 4.96a5.901 5.901 0 0 0-1.887 4.326c0 3.258 2.636 5.909 5.875 5.909.604 0 1.188-.093 1.737-.264L64.858 40l-4.966 8.648 1.722 1 5.253-9.148c.177-.31.177-.69 0-1ZM21.229 55.247c-2.144 0-3.888-1.754-3.888-3.909 0-2.156 1.744-3.909 3.888-3.909 2.143 0 3.887 1.753 3.887 3.909 0 2.155-1.744 3.909-3.887 3.909Zm3.248 1.011a5.916 5.916 0 0 0 2.628-4.92c0-3.258-2.636-5.909-5.876-5.909-.939 0-1.823.228-2.61.623L15.143 40l5.759-10.029-1.723-1L13.133 39.5c-.177.31-.177.69 0 1l3.872 6.74a5.9 5.9 0 0 0-1.653 4.098c0 3.258 2.636 5.909 5.877 5.909.488 0 .96-.067 1.415-.181l3.172 5.525c.178.309.506.5.861.5h12.33v-2H27.25l-2.774-4.833Z"/></g></svg>