<svg width="385" height="154" viewBox="0 0 385 154" fill="none" xmlns="http://www.w3.org/2000/svg">
<path d="M16.896 116.024C14.7627 116.024 12.7147 115.725 10.752 115.128C8.87467 114.531 7.25333 113.293 5.888 111.416C4.608 109.453 3.968 106.467 3.968 102.456V94.904C3.968 90.7227 5.16267 87.3947 7.552 84.92C10.0267 82.36 13.696 80.0987 18.56 78.136C21.376 76.9413 23.5947 75.8747 25.216 74.936C26.9227 73.9973 28.16 72.888 28.928 71.608C29.696 70.328 30.08 68.5787 30.08 66.36V63.16C30.08 61.5387 29.7387 60.3013 29.056 59.448C28.4587 58.5947 27.648 57.9973 26.624 57.656C25.6853 57.2293 24.576 57.016 23.296 57.016C20.48 57.016 18.6027 57.8693 17.664 59.576C16.8107 61.2827 16.384 64.0133 16.384 67.768V73.144H5.504V66.616C5.504 63.4587 5.93067 60.6853 6.784 58.296C7.63733 55.8213 9.344 53.9013 11.904 52.536C14.464 51.0853 18.2613 50.36 23.296 50.36C28.5013 50.36 32.4267 50.872 35.072 51.896C37.8027 52.92 39.68 54.4987 40.704 56.632C41.728 58.68 42.24 61.3253 42.24 64.568V115H30.208V107.704C29.3547 110.349 27.648 112.397 25.088 113.848C22.6133 115.299 19.8827 116.024 16.896 116.024ZM21.888 107.96C24.7893 107.96 26.8373 106.936 28.032 104.888C29.312 102.755 29.952 99.8107 29.952 96.056V78.264C29.3547 79.288 28.288 80.2267 26.752 81.08C25.216 81.9333 23.7227 82.8293 22.272 83.768C20.1387 85.048 18.5173 86.4133 17.408 87.864C16.2987 89.2293 15.744 91.1493 15.744 93.624V99.64C15.744 101.944 16 103.736 16.512 105.016C17.1093 106.211 17.8773 107.021 18.816 107.448C19.84 107.789 20.864 107.96 21.888 107.96ZM57.627 115L44.059 51.64H55.451L64.667 100.28L73.755 51.64H85.275L95.003 100.28L103.451 51.64H114.843L101.531 115H87.707L79.515 74.936L71.451 115H57.627ZM134.982 115.896C129.947 115.896 126.022 115.299 123.206 114.104C120.39 112.824 118.427 110.819 117.318 108.088C116.209 105.357 115.654 101.901 115.654 97.72V92.472H127.814V100.408C127.814 103.651 128.283 105.955 129.222 107.32C130.246 108.6 132.123 109.24 134.854 109.24C137.243 109.24 138.95 108.6 139.974 107.32C141.083 106.04 141.638 104.035 141.638 101.304V96.952C141.638 94.9893 141.254 93.368 140.486 92.088C139.803 90.7227 138.651 89.5707 137.03 88.632C135.409 87.6933 133.275 86.6693 130.63 85.56C128.155 84.536 125.851 83.4267 123.718 82.232C121.67 81.0373 120.006 79.4587 118.726 77.496C117.531 75.5333 116.934 73.016 116.934 69.944V66.104C116.934 61.0693 118.342 57.2293 121.158 54.584C123.974 51.9387 128.923 50.616 136.006 50.616C140.614 50.616 144.241 51.2133 146.886 52.408C149.617 53.6027 151.537 55.5227 152.646 58.168C153.841 60.728 154.438 64.056 154.438 68.152V73.016H142.79V66.36C142.79 62.9467 142.235 60.6 141.126 59.32C140.102 57.9547 138.395 57.272 136.006 57.272C133.361 57.272 131.569 57.9547 130.63 59.32C129.691 60.6853 129.222 62.3493 129.222 64.312V68.536C129.222 70.84 129.777 72.6747 130.886 74.04C132.081 75.32 133.617 76.3867 135.494 77.24C137.371 78.008 139.505 78.904 141.894 79.928C144.198 80.7813 146.289 81.8053 148.166 83C150.129 84.1093 151.665 85.6453 152.774 87.608C153.883 89.4853 154.438 92.0453 154.438 95.288V98.744C154.438 102.499 153.841 105.656 152.646 108.216C151.451 110.691 149.446 112.611 146.63 113.976C143.814 115.256 139.931 115.896 134.982 115.896Z" fill="#F76808"/>
<path d="M182.808 130.232C181.613 130.232 180.163 130.189 178.456 130.104C176.749 130.019 175.043 129.891 173.336 129.72C171.715 129.549 170.307 129.379 169.112 129.208C168.003 129.123 167.32 129.037 167.064 128.952V121.144C168.173 121.315 169.837 121.485 172.056 121.656C174.275 121.912 176.152 122.04 177.688 122.04C179.053 122.04 180.333 121.912 181.528 121.656C182.808 121.485 183.917 121.059 184.856 120.376C185.88 119.779 186.691 118.84 187.288 117.56C187.885 116.365 188.184 114.744 188.184 112.696V103.608C187.757 104.632 187.117 105.784 186.264 107.064C185.496 108.259 184.344 109.283 182.808 110.136C181.272 110.989 179.096 111.416 176.28 111.416C174.232 111.416 172.355 111.203 170.648 110.776C169.027 110.264 167.619 109.368 166.424 108.088C165.315 106.723 164.419 104.803 163.736 102.328C163.053 99.768 162.712 96.44 162.712 92.344V66.488C162.712 61.112 163.821 57.1013 166.04 54.456C168.344 51.7253 171.8 50.36 176.408 50.36C179.139 50.36 181.315 50.7013 182.936 51.384C184.643 52.0667 186.008 53.048 187.032 54.328C188.056 55.5227 188.867 56.9307 189.464 58.552L187.544 58.808L189.72 51.64H202.776V105.528C202.776 108.6 202.477 111.629 201.88 114.616C201.368 117.517 200.429 120.12 199.064 122.424C197.699 124.813 195.693 126.691 193.048 128.056C190.488 129.507 187.075 130.232 182.808 130.232ZM182.552 102.712C184.003 102.712 185.112 102.371 185.88 101.688C186.733 100.92 187.288 99.896 187.544 98.616C187.885 97.2507 188.056 95.8427 188.056 94.392V63.032C187.885 62.6053 187.587 62.1787 187.16 61.752C186.733 61.3253 186.136 60.9413 185.368 60.6C184.685 60.2587 183.704 60.088 182.424 60.088C180.717 60.088 179.437 60.6 178.584 61.624C177.731 62.5627 177.304 64.3547 177.304 67V96.184C177.304 97.6347 177.475 98.8293 177.816 99.768C178.157 100.621 178.584 101.261 179.096 101.688C179.693 102.115 180.291 102.413 180.888 102.584C181.485 102.669 182.04 102.712 182.552 102.712ZM222.741 115.896C218.645 115.896 215.573 115.213 213.525 113.848C211.477 112.397 210.069 110.435 209.301 107.96C208.618 105.485 208.277 102.541 208.277 99.128V51.64H222.869V98.232C222.869 99.512 222.954 100.707 223.125 101.816C223.381 102.925 223.893 103.821 224.661 104.504C225.429 105.187 226.666 105.528 228.373 105.528C229.482 105.528 230.378 105.357 231.061 105.016C231.829 104.675 232.426 104.248 232.853 103.736C233.28 103.224 233.578 102.755 233.749 102.328V51.64H248.341V115H235.925L234.773 107.32C234.09 109.709 232.682 111.757 230.549 113.464C228.416 115.085 225.813 115.896 222.741 115.896ZM274.039 116.024C269.602 116.024 265.847 115.555 262.775 114.616C259.788 113.592 257.527 111.629 255.991 108.728C254.455 105.741 253.687 101.261 253.687 95.288V66.744C253.687 60.5147 255.351 56.248 258.679 53.944C262.007 51.64 267.042 50.488 273.783 50.488C280.439 50.488 285.431 51.64 288.759 53.944C292.087 56.248 293.751 60.5147 293.751 66.744V84.024H268.279V101.304C268.279 103.864 268.663 105.656 269.431 106.68C270.284 107.704 271.778 108.216 273.911 108.216C275.874 108.216 277.196 107.747 277.879 106.808C278.647 105.784 279.031 103.949 279.031 101.304V91.192H293.751V95.16C293.751 101.133 292.983 105.613 291.447 108.6C289.911 111.587 287.65 113.592 284.663 114.616C281.762 115.555 278.22 116.024 274.039 116.024ZM268.279 77.368H279.031V65.976C279.031 63.5013 278.647 61.752 277.879 60.728C277.196 59.704 275.831 59.192 273.783 59.192C271.735 59.192 270.284 59.704 269.431 60.728C268.663 61.752 268.279 63.5013 268.279 65.976V77.368ZM316.946 115.896C311.655 115.896 307.517 115.256 304.53 113.976C301.629 112.611 299.581 110.52 298.386 107.704C297.277 104.888 296.722 101.347 296.722 97.08V92.216H311.314V100.408C311.314 103.139 311.698 105.101 312.466 106.296C313.234 107.405 314.685 107.96 316.818 107.96C318.695 107.96 320.018 107.448 320.786 106.424C321.639 105.315 322.066 103.693 322.066 101.56V96.696C322.066 94.648 321.682 93.0267 320.914 91.832C320.146 90.6373 318.951 89.656 317.33 88.888C315.709 88.0347 313.661 87.096 311.186 86.072C308.882 85.1333 306.749 84.0667 304.786 82.872C302.823 81.6773 301.202 80.0987 299.922 78.136C298.727 76.1733 298.13 73.656 298.13 70.584V66.872C298.13 61.5813 299.581 57.5707 302.482 54.84C305.383 52.024 310.631 50.616 318.226 50.616C323.261 50.616 327.186 51.256 330.002 52.536C332.818 53.816 334.781 55.8213 335.89 58.552C337.085 61.1973 337.682 64.568 337.682 68.664V73.4H323.602V66.232C323.602 63.416 323.175 61.4533 322.322 60.344C321.554 59.1493 320.231 58.552 318.354 58.552C316.221 58.552 314.77 59.1067 314.002 60.216C313.319 61.3253 312.978 62.6907 312.978 64.312V69.048C312.978 71.1813 313.533 72.888 314.642 74.168C315.837 75.3627 317.373 76.344 319.25 77.112C321.127 77.7947 323.133 78.5627 325.266 79.416C327.485 80.184 329.533 81.1653 331.41 82.36C333.287 83.4693 334.781 84.9627 335.89 86.84C337.085 88.7173 337.682 91.2347 337.682 94.392V98.232C337.682 102.072 337.042 105.315 335.762 107.96C334.567 110.605 332.434 112.611 329.362 113.976C326.375 115.256 322.237 115.896 316.946 115.896ZM360.996 115.896C355.705 115.896 351.567 115.256 348.58 113.976C345.679 112.611 343.631 110.52 342.436 107.704C341.327 104.888 340.772 101.347 340.772 97.08V92.216H355.364V100.408C355.364 103.139 355.748 105.101 356.516 106.296C357.284 107.405 358.735 107.96 360.868 107.96C362.745 107.96 364.068 107.448 364.836 106.424C365.689 105.315 366.116 103.693 366.116 101.56V96.696C366.116 94.648 365.732 93.0267 364.964 91.832C364.196 90.6373 363.001 89.656 361.38 88.888C359.759 88.0347 357.711 87.096 355.236 86.072C352.932 85.1333 350.799 84.0667 348.836 82.872C346.873 81.6773 345.252 80.0987 343.972 78.136C342.777 76.1733 342.18 73.656 342.18 70.584V66.872C342.18 61.5813 343.631 57.5707 346.532 54.84C349.433 52.024 354.681 50.616 362.276 50.616C367.311 50.616 371.236 51.256 374.052 52.536C376.868 53.816 378.831 55.8213 379.94 58.552C381.135 61.1973 381.732 64.568 381.732 68.664V73.4H367.652V66.232C367.652 63.416 367.225 61.4533 366.372 60.344C365.604 59.1493 364.281 58.552 362.404 58.552C360.271 58.552 358.82 59.1067 358.052 60.216C357.369 61.3253 357.028 62.6907 357.028 64.312V69.048C357.028 71.1813 357.583 72.888 358.692 74.168C359.887 75.3627 361.423 76.344 363.3 77.112C365.177 77.7947 367.183 78.5627 369.316 79.416C371.535 80.184 373.583 81.1653 375.46 82.36C377.337 83.4693 378.831 84.9627 379.94 86.84C381.135 88.7173 381.732 91.2347 381.732 94.392V98.232C381.732 102.072 381.092 105.315 379.812 107.96C378.617 110.605 376.484 112.611 373.412 113.976C370.425 115.256 366.287 115.896 360.996 115.896Z" fill="#0091FF"/>
<path d="M121.329 56.5122C126.339 56.5122 130.763 54.8176 135.716 52.8432C138.182 51.8604 140.811 49.1742 143.286 49.1742C145.305 49.1742 139.425 52.3809 137.521 54.2021C132.348 59.1509 126.997 63.8456 121.98 69.8293C120.279 71.8581 116.438 74.4019 115.614 79.6132C115.317 81.4916 127.402 71.8918 128.347 71.0523C136.272 64.0092 144.25 56.9722 152.26 50.669C154.03 49.2753 159.468 47 157.624 47C152.457 47 146.646 52.4842 141.632 55.2892C134.812 59.1035 128.064 64.1065 121.429 69.8293C116.56 74.029 125.384 71.1882 126.893 71.1882C132.775 71.1882 138.657 71.1882 144.539 71.1882C145.152 71.1882 150.359 70.7068 147.297 74.8571C143.507 79.9937 139.303 83.1816 135.466 88.1742C134.814 89.0224 129.812 96.2935 133.41 94.0174C138.432 90.8413 143.347 85.9565 148.299 82.0592C149.745 80.9213 154.611 78.5261 150.304 78.5261C140.934 78.5261 131.967 79.6266 122.833 85.8641C119.444 88.1777 109.247 91.8627 112.706 93.2021C120.592 96.2559 129.402 93.2021 137.371 93.2021C140.378 93.2021 143.386 93.2021 146.394 93.2021C147.23 93.2021 149.492 91.6006 148.901 93.2021C148.323 94.767 135.177 103.221 139.777 102.986C144.995 102.719 150.443 100.526 155.418 96.1916C159.596 92.5515 146.567 96.0571 142.283 98.6376C139.111 100.548 128.562 104.839 126.442 112.226C125.497 115.519 129.515 112.77 131.054 112.77C133.694 112.77 136.335 112.77 138.975 112.77C140.063 112.77 148.21 111.881 143.386 113.314C142.627 113.539 133.006 117.361 136.669 117.662C145.622 118.397 137.042 119.603 133.059 125" stroke="#A70707" stroke-width="8" stroke-linecap="round"/>
<path d="M109.406 63.2851C119.315 63.2851 129.223 63.2851 139.131 63.2851C142.522 63.2851 152.853 61.3124 155.033 63.493C155.393 63.8525 147.328 69.4539 146.822 69.8329C139.093 75.6299 132.119 82.3427 124.373 88.1253C122.264 89.699 115.158 94.4646 122.71 92.0748C131.558 89.2746 141.127 84.8441 150.408 83.916C156.662 83.2906 146.672 86.0847 145.159 86.8781C134.112 92.6732 123.263 98.6826 111.485 102.936C106.104 104.879 106.45 105.378 111.953 105.378C120.053 105.378 127.956 105.269 136.013 104.443C137.023 104.339 145.903 103.134 140.586 103.56C134.829 104.02 127.098 105.055 121.878 107.665C120.728 108.24 127.129 108.871 127.595 108.912C132.023 109.299 136.329 109.61 140.69 110.523C143.154 111.039 148.693 110.658 148.693 113.797" stroke="#A70707" stroke-width="8" stroke-linecap="round"/>
</svg>
