<svg width="417" height="154" viewBox="0 0 417 154" fill="none" xmlns="http://www.w3.org/2000/svg">
<path d="M16.128 116.024C13.9093 116.024 11.8187 115.725 9.856 115.128C7.97867 114.531 6.4 113.293 5.12 111.416C3.92533 109.453 3.328 106.595 3.328 102.84V94.392C3.328 90.3813 4.48 87.1387 6.784 84.664C9.17333 82.104 12.8853 79.928 17.92 78.136C20.5653 77.0267 22.656 76.0453 24.192 75.192C25.728 74.3387 26.8373 73.3147 27.52 72.12C28.2027 70.84 28.544 69.1333 28.544 67V63.544C28.544 62.1787 28.3307 61.1547 27.904 60.472C27.4773 59.704 26.8373 59.1493 25.984 58.808C25.216 58.4667 24.32 58.296 23.296 58.296C21.0773 58.296 19.6267 59.064 18.944 60.6C18.2613 62.0507 17.92 64.5253 17.92 68.024V73.4H4.736V66.616C4.736 63.4587 5.16267 60.6853 6.016 58.296C6.95467 55.8213 8.74667 53.9013 11.392 52.536C14.0373 51.0853 18.0053 50.36 23.296 50.36C28.672 50.36 32.8107 50.872 35.712 51.896C38.6133 52.8347 40.6187 54.3707 41.728 56.504C42.8373 58.552 43.392 61.368 43.392 64.952V115H28.8V107.96C28.1173 110.435 26.5387 112.397 24.064 113.848C21.6747 115.299 19.0293 116.024 16.128 116.024ZM22.4 106.424C24.704 106.424 26.2827 105.571 27.136 103.864C28.0747 102.072 28.544 99.5973 28.544 96.44V80.184C28.032 81.0373 27.1787 81.8053 25.984 82.488C24.7893 83.0853 23.5947 83.768 22.4 84.536C20.7787 85.6453 19.5413 86.7973 18.688 87.992C17.8347 89.1013 17.408 90.68 17.408 92.728V99.256C17.408 101.048 17.6213 102.499 18.048 103.608C18.4747 104.632 19.072 105.357 19.84 105.784C20.608 106.211 21.4613 106.424 22.4 106.424ZM57.487 115L44.175 51.64H58.127L66.063 97.464L73.871 51.64H87.951L96.783 97.464L103.823 51.64H117.647L104.591 115H87.823L80.911 79.672L74.255 115H57.487Z" fill="#F76808"/>
<path d="M214.808 130.232C213.613 130.232 212.163 130.189 210.456 130.104C208.749 130.019 207.043 129.891 205.336 129.72C203.715 129.549 202.307 129.379 201.112 129.208C200.003 129.123 199.32 129.037 199.064 128.952V121.144C200.173 121.315 201.837 121.485 204.056 121.656C206.275 121.912 208.152 122.04 209.688 122.04C211.053 122.04 212.333 121.912 213.528 121.656C214.808 121.485 215.917 121.059 216.856 120.376C217.88 119.779 218.691 118.84 219.288 117.56C219.885 116.365 220.184 114.744 220.184 112.696V103.608C219.757 104.632 219.117 105.784 218.264 107.064C217.496 108.259 216.344 109.283 214.808 110.136C213.272 110.989 211.096 111.416 208.28 111.416C206.232 111.416 204.355 111.203 202.648 110.776C201.027 110.264 199.619 109.368 198.424 108.088C197.315 106.723 196.419 104.803 195.736 102.328C195.053 99.768 194.712 96.44 194.712 92.344V66.488C194.712 61.112 195.821 57.1013 198.04 54.456C200.344 51.7253 203.8 50.36 208.408 50.36C211.139 50.36 213.315 50.7013 214.936 51.384C216.643 52.0667 218.008 53.048 219.032 54.328C220.056 55.5227 220.867 56.9307 221.464 58.552L219.544 58.808L221.72 51.64H234.776V105.528C234.776 108.6 234.477 111.629 233.88 114.616C233.368 117.517 232.429 120.12 231.064 122.424C229.699 124.813 227.693 126.691 225.048 128.056C222.488 129.507 219.075 130.232 214.808 130.232ZM214.552 102.712C216.003 102.712 217.112 102.371 217.88 101.688C218.733 100.92 219.288 99.896 219.544 98.616C219.885 97.2507 220.056 95.8427 220.056 94.392V63.032C219.885 62.6053 219.587 62.1787 219.16 61.752C218.733 61.3253 218.136 60.9413 217.368 60.6C216.685 60.2587 215.704 60.088 214.424 60.088C212.717 60.088 211.437 60.6 210.584 61.624C209.731 62.5627 209.304 64.3547 209.304 67V96.184C209.304 97.6347 209.475 98.8293 209.816 99.768C210.157 100.621 210.584 101.261 211.096 101.688C211.693 102.115 212.291 102.413 212.888 102.584C213.485 102.669 214.04 102.712 214.552 102.712ZM254.741 115.896C250.645 115.896 247.573 115.213 245.525 113.848C243.477 112.397 242.069 110.435 241.301 107.96C240.618 105.485 240.277 102.541 240.277 99.128V51.64H254.869V98.232C254.869 99.512 254.954 100.707 255.125 101.816C255.381 102.925 255.893 103.821 256.661 104.504C257.429 105.187 258.666 105.528 260.373 105.528C261.482 105.528 262.378 105.357 263.061 105.016C263.829 104.675 264.426 104.248 264.853 103.736C265.28 103.224 265.578 102.755 265.749 102.328V51.64H280.341V115H267.925L266.773 107.32C266.09 109.709 264.682 111.757 262.549 113.464C260.416 115.085 257.813 115.896 254.741 115.896ZM306.039 116.024C301.602 116.024 297.847 115.555 294.775 114.616C291.788 113.592 289.527 111.629 287.991 108.728C286.455 105.741 285.687 101.261 285.687 95.288V66.744C285.687 60.5147 287.351 56.248 290.679 53.944C294.007 51.64 299.042 50.488 305.783 50.488C312.439 50.488 317.431 51.64 320.759 53.944C324.087 56.248 325.751 60.5147 325.751 66.744V84.024H300.279V101.304C300.279 103.864 300.663 105.656 301.431 106.68C302.284 107.704 303.778 108.216 305.911 108.216C307.874 108.216 309.196 107.747 309.879 106.808C310.647 105.784 311.031 103.949 311.031 101.304V91.192H325.751V95.16C325.751 101.133 324.983 105.613 323.447 108.6C321.911 111.587 319.65 113.592 316.663 114.616C313.762 115.555 310.22 116.024 306.039 116.024ZM300.279 77.368H311.031V65.976C311.031 63.5013 310.647 61.752 309.879 60.728C309.196 59.704 307.831 59.192 305.783 59.192C303.735 59.192 302.284 59.704 301.431 60.728C300.663 61.752 300.279 63.5013 300.279 65.976V77.368ZM348.946 115.896C343.655 115.896 339.517 115.256 336.53 113.976C333.629 112.611 331.581 110.52 330.386 107.704C329.277 104.888 328.722 101.347 328.722 97.08V92.216H343.314V100.408C343.314 103.139 343.698 105.101 344.466 106.296C345.234 107.405 346.685 107.96 348.818 107.96C350.695 107.96 352.018 107.448 352.786 106.424C353.639 105.315 354.066 103.693 354.066 101.56V96.696C354.066 94.648 353.682 93.0267 352.914 91.832C352.146 90.6373 350.951 89.656 349.33 88.888C347.709 88.0347 345.661 87.096 343.186 86.072C340.882 85.1333 338.749 84.0667 336.786 82.872C334.823 81.6773 333.202 80.0987 331.922 78.136C330.727 76.1733 330.13 73.656 330.13 70.584V66.872C330.13 61.5813 331.581 57.5707 334.482 54.84C337.383 52.024 342.631 50.616 350.226 50.616C355.261 50.616 359.186 51.256 362.002 52.536C364.818 53.816 366.781 55.8213 367.89 58.552C369.085 61.1973 369.682 64.568 369.682 68.664V73.4H355.602V66.232C355.602 63.416 355.175 61.4533 354.322 60.344C353.554 59.1493 352.231 58.552 350.354 58.552C348.221 58.552 346.77 59.1067 346.002 60.216C345.319 61.3253 344.978 62.6907 344.978 64.312V69.048C344.978 71.1813 345.533 72.888 346.642 74.168C347.837 75.3627 349.373 76.344 351.25 77.112C353.127 77.7947 355.133 78.5627 357.266 79.416C359.485 80.184 361.533 81.1653 363.41 82.36C365.287 83.4693 366.781 84.9627 367.89 86.84C369.085 88.7173 369.682 91.2347 369.682 94.392V98.232C369.682 102.072 369.042 105.315 367.762 107.96C366.567 110.605 364.434 112.611 361.362 113.976C358.375 115.256 354.237 115.896 348.946 115.896ZM392.996 115.896C387.705 115.896 383.567 115.256 380.58 113.976C377.679 112.611 375.631 110.52 374.436 107.704C373.327 104.888 372.772 101.347 372.772 97.08V92.216H387.364V100.408C387.364 103.139 387.748 105.101 388.516 106.296C389.284 107.405 390.735 107.96 392.868 107.96C394.745 107.96 396.068 107.448 396.836 106.424C397.689 105.315 398.116 103.693 398.116 101.56V96.696C398.116 94.648 397.732 93.0267 396.964 91.832C396.196 90.6373 395.001 89.656 393.38 88.888C391.759 88.0347 389.711 87.096 387.236 86.072C384.932 85.1333 382.799 84.0667 380.836 82.872C378.873 81.6773 377.252 80.0987 375.972 78.136C374.777 76.1733 374.18 73.656 374.18 70.584V66.872C374.18 61.5813 375.631 57.5707 378.532 54.84C381.433 52.024 386.681 50.616 394.276 50.616C399.311 50.616 403.236 51.256 406.052 52.536C408.868 53.816 410.831 55.8213 411.94 58.552C413.135 61.1973 413.732 64.568 413.732 68.664V73.4H399.652V66.232C399.652 63.416 399.225 61.4533 398.372 60.344C397.604 59.1493 396.281 58.552 394.404 58.552C392.271 58.552 390.82 59.1067 390.052 60.216C389.369 61.3253 389.028 62.6907 389.028 64.312V69.048C389.028 71.1813 389.583 72.888 390.692 74.168C391.887 75.3627 393.423 76.344 395.3 77.112C397.177 77.7947 399.183 78.5627 401.316 79.416C403.535 80.184 405.583 81.1653 407.46 82.36C409.337 83.4693 410.831 84.9627 411.94 86.84C413.135 88.7173 413.732 91.2347 413.732 94.392V98.232C413.732 102.072 413.092 105.315 411.812 107.96C410.617 110.605 408.484 112.611 405.412 113.976C402.425 115.256 398.287 115.896 392.996 115.896Z" fill="#0091FF"/>
<rect x="134.425" y="40" width="68" height="67" rx="15" transform="rotate(17.5258 134.425 40)" fill="#0F1B2D" stroke="#F76808" stroke-width="10"/>
<rect x="113" y="53.6346" width="68" height="67" rx="15" transform="rotate(-4.85538 113 53.6346)" fill="#0F1B2D" stroke="#0091FF" stroke-width="10"/>
<path d="M153.631 94.386C153.323 93.7119 153.181 93.0238 153.122 92.3285C152.54 85.4831 163.207 83.0687 162.381 73.3354C161.872 67.3457 157.014 64.3109 148.129 65.0657C139.245 65.8204 134.969 69.631 135.477 75.6207L135.791 79.3108L144.426 78.5773L144.081 74.5128C143.854 71.8388 145.428 70.6817 148.335 70.4348C151.241 70.1879 152.988 71.063 153.215 73.737C154.005 83.0424 144.105 84.6375 144.8 92.8199C144.882 93.7826 145.107 94.4637 145.493 95.0773L153.631 94.386ZM145.301 97.733L145.782 103.402L154.584 102.654L154.103 96.9854L145.301 97.733Z" fill="#0091FF"/>
</svg>
