<svg width="500" height="500" viewBox="0 0 500 500" fill="none" xmlns="http://www.w3.org/2000/svg">
<path d="M128.726 122.349C140.114 86.2865 178.581 66.284 214.643 77.6724L380.063 129.911C416.126 141.3 436.129 179.766 424.74 215.829L373.876 376.896C362.488 412.958 324.021 432.961 287.958 421.573L122.538 369.334C86.4756 357.945 66.4731 319.479 77.8615 283.416L128.726 122.349Z" fill="#0F1B2D"/>
<path fill-rule="evenodd" clip-rule="evenodd" d="M106.96 115.476C122.144 67.392 173.433 40.722 221.517 55.9066L386.937 108.145C435.02 123.33 461.69 174.619 446.506 222.703L395.642 383.769C380.457 431.853 329.168 458.523 281.085 443.338L115.665 391.1C67.5811 375.915 40.9112 324.626 56.0957 276.542L106.96 115.476ZM207.77 99.4382C183.728 91.8459 158.084 105.181 150.491 129.223L99.6273 290.289C92.035 314.331 105.37 339.976 129.412 347.568L294.832 399.807C318.874 407.399 344.518 394.064 352.11 370.022L402.974 208.955C410.567 184.914 397.232 159.269 373.19 151.677L207.77 99.4382Z" fill="#F76808"/>
<path d="M57.3336 187.525C54.1326 149.842 82.0854 116.699 119.768 113.499L292.618 98.8157C330.3 95.6147 363.443 123.567 366.644 161.25L380.94 329.551C384.141 367.234 356.188 400.376 318.506 403.577L145.656 418.26C107.974 421.461 74.831 393.508 71.63 355.826L57.3336 187.525Z" fill="#0F1B2D"/>
<path fill-rule="evenodd" clip-rule="evenodd" d="M34.5902 189.457C30.3222 139.213 67.5926 95.0231 117.836 90.7551L290.686 76.0723C340.929 71.8043 385.119 109.075 389.387 159.318L403.684 327.619C407.951 377.862 370.681 422.053 320.438 426.32L147.588 441.003C97.3447 445.271 53.1546 408.001 48.8867 357.758L34.5902 189.457ZM121.7 136.242C96.5782 138.376 77.943 160.471 80.077 185.593L94.3734 353.894C96.5074 379.015 118.602 397.651 143.724 395.517L316.574 380.834C341.696 378.7 360.331 356.605 358.197 331.483L343.9 163.182C341.766 138.06 319.671 119.425 294.55 121.559L121.7 136.242Z" fill="#0091FF"/>
<path d="M237.02 305.327C235.613 302.25 234.965 299.108 234.695 295.935C232.041 264.685 280.737 253.663 276.963 209.23C274.64 181.887 252.465 168.033 211.906 171.478C171.347 174.923 151.826 192.319 154.149 219.663L155.579 236.508L195.001 233.159L193.425 214.605C192.388 202.398 199.575 197.115 212.842 195.988C226.109 194.861 234.085 198.856 235.121 211.063C238.73 253.543 193.533 260.825 196.706 298.178C197.08 302.572 198.107 305.682 199.873 308.483L237.02 305.327ZM198.993 320.606L201.192 346.485L241.372 343.072L239.173 317.193L198.993 320.606Z" fill="#0091FF"/>
</svg>
