<svg xmlns="http://www.w3.org/2000/svg" width="80" height="80"><defs><linearGradient id="a" x1="0%" x2="100%" y1="100%" y2="0%"><stop offset="0%" stop-color="#B0084D"/><stop offset="100%" stop-color="#FF4F8B"/></linearGradient></defs><g fill="none" fill-rule="evenodd"><path fill="url(#a)" d="M0 0h80v80H0z"/><path fill="#FFF" d="M34.065 55.632H37v-2.017h-2.935v2.017Zm4.935 0h3v-2.017h-3v2.017ZM27 14.63l-13 6.453v40.111l13 4.397V14.63Zm2 12.764v26.222h3v2.017h-3v11.36c0 .324-.155.629-.416.818a.993.993 0 0 1-.902.138l-15-5.072A1.008 1.008 0 0 1 12 61.92V20.454c0-.384.217-.735.559-.905l15-7.445a.989.989 0 0 1 .969.049c.293.183.472.507.472.856v12.367h3v2.017h-3Zm15 28.24h3v-2.018h-3v2.017Zm.065-28.24H47v-2.017h-2.935v2.017Zm-5 0H42v-2.017h-2.935v2.017Zm-5 0H37v-2.017h-2.935v2.017ZM66 21.083l-13-6.454v50.96l13-4.396v-40.11Zm2 40.837c0 .432-.274.817-.682.956l-15 5.072a.991.991 0 0 1-.902-.138 1.012 1.012 0 0 1-.416-.819V55.632h-1.935v-2.017H51V27.393h-1.935v-2.017H51V13.01c0-.35.179-.673.472-.856a.988.988 0 0 1 .969-.049l15 7.445c.342.17.559.521.559.905V61.92ZM42.934 33.807l-1.868-.724-5 13.11 1.868.725 5-13.111Zm6.773 6.402a1.013 1.013 0 0 0 0-1.426l-4-4.034-1.414 1.426 3.293 3.32-3.293 3.322 1.414 1.426 4-4.034Zm-15.414 4.034-4-4.034a1.013 1.013 0 0 1 0-1.426l4-4.034 1.414 1.426-3.293 3.32 3.293 3.322-1.414 1.426Z"/></g></svg>