<svg xmlns="http://www.w3.org/2000/svg" width="80" height="80"><defs><linearGradient id="a" x1="0%" x2="100%" y1="100%" y2="0%"><stop offset="0%" stop-color="#4D27A8"/><stop offset="100%" stop-color="#A166FF"/></linearGradient></defs><g fill="none" fill-rule="evenodd"><path fill="url(#a)" d="M0 0h80v80H0z" transform="translate(.121)"/><path fill="#FFF" d="M65 24c0-1.103-.897-2-2-2s-2 .897-2 2 .897 2 2 2 2-.897 2-2ZM42 47c0-1.103-.897-2-2-2s-2 .897-2 2 .897 2 2 2 2-.897 2-2Zm-2-14c1.103 0 2-.897 2-2s-.897-2-2-2-2 .897-2 2 .897 2 2 2ZM19 53c0-1.103-.897-2-2-2s-2 .897-2 2 .897 2 2 2 2-.897 2-2Zm48-29c0 2.206-1.794 4-4 4a3.968 3.968 0 0 1-2.243-.691L43.415 44.948c.363.602.585 1.299.585 2.052 0 2.206-1.794 4-4 4s-4-1.794-4-4c0-1.858 1.279-3.411 3-3.858v-8.284a3.98 3.98 0 0 1-1.615-.856l-17.01 16.872c.391.617.625 1.343.625 2.126 0 2.206-1.794 4-4 4s-4-1.794-4-4 1.794-4 4-4c.696 0 1.342.195 1.912.509L36.241 32.32A3.965 3.965 0 0 1 36 31c0-2.206 1.794-4 4-4s4 1.794 4 4c0 1.858-1.279 3.411-3 3.858v8.284c.351.091.68.23.986.407l17.457-17.757A3.954 3.954 0 0 1 59 24c0-2.206 1.794-4 4-4s4 1.794 4 4Zm-50-7h46v1h2v-2a1 1 0 0 0-1-1H16a1 1 0 0 0-1 1v31h2V17Zm46 13h2v34a1 1 0 0 1-1 1H16a1 1 0 0 1-1-1v-5h2v4h46V30Z"/></g></svg>