<svg xmlns="http://www.w3.org/2000/svg" width="80" height="80"><defs><linearGradient id="a" x1="0%" x2="100%" y1="100%" y2="0%"><stop offset="0%" stop-color="#055F4E"/><stop offset="100%" stop-color="#56C0A7"/></linearGradient></defs><g fill="none" fill-rule="evenodd"><path fill="url(#a)" d="M0 0h80v80H0z"/><path fill="#FFF" d="M41 64.29V48.585l14-7.875v15.705L41 64.29ZM25 40.71l14 7.875V64.29l-14-7.875V40.71Zm15.001-9.562L53.96 39 40 46.853l-13.939-7.841 13.94-7.864Zm16.489 6.98-16-9a1 1 0 0 0-.981.001l-15.802 8.915A1 1 0 0 0 23 39v18c0 .361.195.694.51.872l16 9a1.004 1.004 0 0 0 .98 0l16-9c.315-.178.51-.511.51-.872V39c0-.361-.195-.694-.51-.872ZM28.5 18a1.5 1.5 0 1 1-3.001-.001A1.5 1.5 0 0 1 28.5 18Zm-5 0a1.5 1.5 0 1 1-3.001-.001A1.5 1.5 0 0 1 23.5 18Zm-5 0a1.5 1.5 0 1 1-3.001-.001A1.5 1.5 0 0 1 18.5 18ZM61 50h2V26h-2v24ZM14 21v-6h52v6H14Zm53-8H13a.997.997 0 0 0-1 1l.002 40a1 1 0 0 0 1 1H21v-2h-7V23h52v30h-7v2h8a1 1 0 0 0 1-1V14a1 1 0 0 0-1-1Z"/></g></svg>