<svg xmlns="http://www.w3.org/2000/svg" width="80" height="80"><defs><linearGradient id="a" x1="0%" x2="100%" y1="100%" y2="0%"><stop offset="0%" stop-color="#BD0816"/><stop offset="100%" stop-color="#FF5252"/></linearGradient></defs><g fill="none" fill-rule="evenodd"><path fill="url(#a)" d="M0 0h80v80H0z"/><path fill="#FFF" d="m39.293 39.293 4.18-4.179A5.963 5.963 0 0 0 40.004 34a6.003 6.003 0 0 0-5.997 5.997 6.003 6.003 0 0 0 5.997 5.996A6.002 6.002 0 0 0 46 39.997a5.96 5.96 0 0 0-1.113-3.469l-4.18 4.179-1.414-1.414Zm11.276-8.448-4.256 4.257A7.947 7.947 0 0 1 48 39.997c0 4.409-3.587 7.996-7.996 7.996-4.409 0-7.997-3.587-7.997-7.996 0-4.41 3.588-7.997 7.997-7.997a7.94 7.94 0 0 1 4.894 1.688l4.257-4.257A13.919 13.919 0 0 0 40.004 26c-7.718 0-13.997 6.279-13.997 13.997 0 7.717 6.279 13.996 13.997 13.996S54 47.714 54 39.997c0-3.5-1.3-6.696-3.431-9.152Zm2.461-7.33A3.49 3.49 0 0 0 56.515 27 3.488 3.488 0 0 0 60 23.515a3.49 3.49 0 0 0-3.485-3.485 3.49 3.49 0 0 0-3.485 3.485Zm-2.462 4.502 1.416-1.415a5.457 5.457 0 0 1-.954-3.087 5.491 5.491 0 0 1 5.485-5.485A5.492 5.492 0 0 1 62 23.515 5.491 5.491 0 0 1 56.515 29a5.446 5.446 0 0 1-3.12-.98l-1.413 1.411C54.475 32.253 56 35.946 56 39.997c0 8.82-7.176 15.996-15.996 15.996-8.821 0-15.997-7.176-15.997-15.996C24.007 31.176 31.183 24 40.004 24c4.051 0 7.743 1.526 10.564 4.017ZM64 40c0 13.233-10.767 24-24 24S16 53.233 16 40s10.767-24 24-24c3.361 0 6.614.684 9.669 2.032l-.809 1.83A21.785 21.785 0 0 0 40 18c-12.131 0-22 9.869-22 22s9.869 22 22 22 22-9.869 22-22c0-3.09-.622-6.056-1.851-8.814l1.829-.814C63.319 33.389 64 36.628 64 40Z"/></g></svg>