<svg xmlns="http://www.w3.org/2000/svg" width="80" height="80"><defs><linearGradient id="a" x1="0%" x2="100%" y1="100%" y2="0%"><stop offset="0%" stop-color="#BD0816"/><stop offset="100%" stop-color="#FF5252"/></linearGradient></defs><g fill="none" fill-rule="evenodd"><path fill="url(#a)" d="M0 0h80v80H0z"/><path fill="#FFF" d="M57 61c0-1.626-1.374-3-3-3s-3 1.374-3 3 1.374 3 3 3 3-1.374 3-3Zm-17-1c-1.626 0-3 1.374-3 3s1.374 3 3 3 3-1.374 3-3-1.374-3-3-3Zm-14-2c-1.626 0-3 1.374-3 3s1.374 3 3 3 3-1.374 3-3-1.374-3-3-3Zm2.605-15h22.79l-7.656-6.89-3.09 2.648a.993.993 0 0 1-1.3 0L36.26 36.11 28.605 43ZM27 28.173v13.582l7.729-6.957L27 28.173ZM51.297 27H28.703l11.296 9.683L51.297 27ZM53 41.755V28.173l-7.729 6.624L53 41.755ZM59 61c0 2.71-2.29 5-5 5s-5-2.29-5-5c0-2.37 1.75-4.416 4-4.894V53H41v5.106c2.25.478 4 2.525 4 4.894 0 2.71-2.29 5-5 5s-5-2.29-5-5c0-2.37 1.75-4.416 4-4.894V53H27v3.106c2.25.478 4 2.525 4 4.894 0 2.71-2.29 5-5 5s-5-2.29-5-5c0-2.37 1.75-4.416 4-4.894V52a1 1 0 0 1 1-1h13v-6H26a1 1 0 0 1-1-1V26a1 1 0 0 1 1-1h28a1 1 0 0 1 1 1v18a1 1 0 0 1-1 1H41v6h13a1 1 0 0 1 1 1v4.106c2.25.478 4 2.525 4 4.894Zm9-21c0 5.907-1.823 11.56-5.273 16.345l-1.623-1.17A25.794 25.794 0 0 0 66 40c0-14.336-11.663-26-25.999-26C25.664 14 14 25.664 14 40a25.794 25.794 0 0 0 4.896 15.175l-1.623 1.17A27.783 27.783 0 0 1 12 39.999C12 24.561 24.561 12 39.999 12 55.438 12 68 24.561 68 40Z"/></g></svg>