<svg xmlns="http://www.w3.org/2000/svg" width="80" height="80"><defs><linearGradient id="a" x1="0%" x2="100%" y1="100%" y2="0%"><stop offset="0%" stop-color="#C8511B"/><stop offset="100%" stop-color="#F90"/></linearGradient></defs><g fill="none" fill-rule="evenodd"><path fill="url(#a)" d="M0 0h80v80H0z"/><path fill="#FFF" d="m62.954 50.349-7.139-4.168a17.054 17.054 0 0 0 1.165-6.172c0-8.057-5.583-14.812-13.06-16.607v-8.61l19.034 11.607v23.95ZM39.973 65.985 17 52.653V26.34l19.034-11.553v8.616c-7.477 1.794-13.06 8.55-13.06 16.607 0 9.424 7.627 17.09 17.002 17.09 4.572 0 8.72-1.831 11.779-4.791l5.809 3.452-17.591 10.225Zm8.985-26.994c-.2-4.855-1.153-9.512-2.585-12.602a15.083 15.083 0 0 1 8.556 12.602h-5.971Zm.039 2.01h5.933a15.08 15.08 0 0 1-8.243 12.477c1.601-3.42 2.298-7.946 2.31-12.477Zm-8.021 0h6.006c.019 5.195-.894 10.396-3.262 13.594-.886.23-1.802.381-2.744.443V41.001Zm-4.699 13.605c-2.078-2.64-3.114-8.022-3.146-13.605h5.845v14.037a14.754 14.754 0 0 1-2.699-.432Zm-5.172-13.605c.032 4.702.768 9.284 2.223 12.507A15.081 15.081 0 0 1 25.024 41h6.081Zm.028-2.01h-6.108a15.084 15.084 0 0 1 8.701-12.672c-1.554 3.325-2.426 7.962-2.593 12.672Zm7.843 0h-5.813c.203-5.459 1.362-10.8 3.434-13.661.773-.18 1.567-.295 2.379-.349v14.01Zm2-14.01a14.88 14.88 0 0 1 2.44.364c1.776 2.08 3.219 7.673 3.51 13.646h-5.95v-14.01Zm23.497-.007L43.438 12.146a.992.992 0 0 0-1.008-.016c-.316.178-.51.512-.51.875V23.04a17.008 17.008 0 0 0-1.944-.12c-.657 0-1.303.046-1.942.12V13.005c0-.363-.194-.696-.509-.875a.994.994 0 0 0-1.008.015L15.483 24.912c-.3.182-.483.508-.483.86v27.461c0 .36.19.692.5.87l23.973 13.913a.995.995 0 0 0 1.001 0L60.047 56.64a1.006 1.006 0 0 0 .008-1.735L53.148 50.8a17.148 17.148 0 0 0 1.839-2.78l8.465 4.944a.994.994 0 0 0 1.001.002c.31-.179.501-.512.501-.871V25.833c0-.35-.183-.676-.481-.86Z"/></g></svg>