<svg xmlns="http://www.w3.org/2000/svg" width="80" height="80"><defs><linearGradient id="a" x1="0%" x2="100%" y1="100%" y2="0%"><stop offset="0%" stop-color="#4D27A8"/><stop offset="100%" stop-color="#A166FF"/></linearGradient></defs><g fill="none" fill-rule="evenodd"><path fill="url(#a)" d="M0 0h80v80H0z"/><path fill="#FFF" d="M24 56h4V30.392l-4 2.728V56Zm11-30.38-5 3.408V56h5V25.62Zm2-1.364V56h6V24.256l-3-2.046-3 2.046Zm13 4.772-5-3.408V56h5V29.028Zm6 4.092-4-2.728V56h4V33.12ZM63 58H17v-2h5V34.483l-3.437 2.343-1.126-1.652 22-15a.998.998 0 0 1 1.126 0l22 15-1.126 1.652L58 34.483V56h5v2Zm-48 5h10v-2H15v2Zm14 0h22v-2H29v2Zm26 0h10v-2H55v2Zm-43 5h25v-2H12v2Zm31 0h25v-2H43v2ZM13.555 32.832l-1.11-1.664 27-18a1 1 0 0 1 1.11 0l27 18-1.11 1.664L40 15.202l-26.445 17.63Z"/></g></svg>