<svg xmlns="http://www.w3.org/2000/svg" width="80" height="80"><defs><linearGradient id="a" x1="0%" x2="100%" y1="100%" y2="0%"><stop offset="0%" stop-color="#055F4E"/><stop offset="100%" stop-color="#56C0A7"/></linearGradient></defs><g fill="none" fill-rule="evenodd"><path fill="url(#a)" d="M0 0h80v80H0z"/><path fill="#FFF" d="M20.966 18.581v35.327l-6.79-33.93 6.79-1.397Zm31-3.354L57.336 20h-5.37v-4.773Zm-29-1.227h27v7a1 1 0 0 0 1 1h8v23h2V21a.999.999 0 0 0-.336-.747l-9-8a.998.998 0 0 0-.664-.253h-29a1 1 0 0 0-1 1v3.539l-8.167 1.681a.999.999 0 0 0-.78 1.175l8.967 44.802.019-.004a.985.985 0 0 0 .96.807h24v-2h-23V14Zm4 37h18v-2h-18v2Zm0-6h25v-2h-25v2Zm0-18h19v-2h-19v2Zm0 12h27v-2h-27v2Zm9-6h18v-2h-18v2Zm-9 0h7v-2h-7v2Zm39 27h-5a1 1 0 0 0-1 1v5h-5v-5a1 1 0 0 0-1-1h-5v-5h5a1 1 0 0 0 1-1v-5h5v5a1 1 0 0 0 1 1h5v5Zm1-7h-5v-5a1 1 0 0 0-1-1h-7a1 1 0 0 0-1 1v5h-5a1 1 0 0 0-1 1v7a1 1 0 0 0 1 1h5v5a1 1 0 0 0 1 1h7a1 1 0 0 0 1-1v-5h5a1 1 0 0 0 1-1v-7a1 1 0 0 0-1-1Z"/></g></svg>