<svg xmlns="http://www.w3.org/2000/svg" width="80" height="80"><defs><linearGradient id="a" x1="0%" x2="100%" y1="100%" y2="0%"><stop offset="0%" stop-color="#4D27A8"/><stop offset="100%" stop-color="#A166FF"/></linearGradient></defs><g fill="none" fill-rule="evenodd"><path fill="url(#a)" d="M0 0h80v80H0z"/><path fill="#FFF" d="M46.71 26.846v2.008a3.45 3.45 0 0 0-2.337.896c-.245.223-.586.31-.907.236a1.001 1.001 0 0 1-.707-.613c-1.225-3.15-4.402-5.267-7.906-5.267-2.416 0-4.72.997-6.318 2.737-1.373 1.489-2.129 3.394-2.129 5.366 0 .44-.284.838-.703.97-2.089.655-3.645 2.339-4.071 4.398a5.989 5.989 0 0 0-.111 1.14c0 3.219 2.73 5.837 6.086 5.837h15.9v2.009h-15.9c-4.464 0-8.096-3.52-8.096-7.845a7.89 7.89 0 0 1 .142-1.484c.508-2.572 2.31-4.71 4.77-5.726a9.944 9.944 0 0 1 2.634-6.025c1.977-2.15 4.82-3.385 7.796-3.385 3.888 0 7.458 2.127 9.245 5.402a5.496 5.496 0 0 1 2.611-.654M68.741 68.74a4.296 4.296 0 0 1-6.064 0L48.99 55.065a25.826 25.826 0 0 0 5.925-6.266l13.83 13.887a4.292 4.292 0 0 1-.004 6.055M10.009 34.604c0-13.01 10.588-23.596 23.603-23.596 13.015 0 23.603 10.585 23.603 23.596 0 13.01-10.588 23.596-23.603 23.596-13.015 0-23.603-10.585-23.603-23.596m60.16 26.664L55.994 47.034a25.437 25.437 0 0 0 3.231-12.43C59.224 20.487 47.734 9 33.612 9 19.489 9 8 20.487 8 34.604c0 14.118 11.49 25.604 25.612 25.604a25.45 25.45 0 0 0 13.697-3.986l13.948 13.94A6.279 6.279 0 0 0 65.708 72a6.279 6.279 0 0 0 4.453-1.84 6.303 6.303 0 0 0 .009-8.892m-36.558-9.093c-9.691 0-17.577-7.883-17.577-17.571 0-9.688 7.886-17.571 17.577-17.571 9.691 0 17.577 7.883 17.577 17.571 0 9.688-7.886 17.571-17.577 17.571m0-37.15c-10.8 0-19.586 8.783-19.586 19.579 0 10.796 8.787 19.58 19.586 19.58 10.8 0 19.586-8.784 19.586-19.58 0-10.796-8.787-19.58-19.586-19.58"/></g></svg>