<svg xmlns="http://www.w3.org/2000/svg" width="80" height="80"><defs><linearGradient id="a" x1="0%" x2="100%" y1="100%" y2="0%"><stop offset="0%" stop-color="#055F4E"/><stop offset="100%" stop-color="#56C0A7"/></linearGradient></defs><g fill="none" fill-rule="evenodd"><path fill="url(#a)" d="M0 0h80v80H0z"/><path fill="#FFF" d="m62.987 49.305-2.598-1.5-1 1.732 2.598 1.5 1-1.732ZM37.692 30.533h2V26.63h-2v3.903Zm-7.514 14.154 1.131 1.65 4.205-2.886-1.131-1.649-4.205 2.885Zm2.609-25.576-6.745-2.998-11.05 5.95 6.03 3.756 11.765-6.708ZM20 27.538l-6-3.737v17.645l6 3.75V27.538Zm15.495-7.67L22 27.563V47a.999.999 0 0 1-1 1c-.185 0-.368-.05-.531-.152l-8-5A1 1 0 0 1 12 42V22c0-.363.197-.698.514-.875.004-.002.009-.002.013-.005h-.001l13-7a1 1 0 0 1 .88-.034l9 4a1.001 1.001 0 0 1 .089 1.782Zm23.162 26.937-2.569-1.514-1.03 1.714 2.599 1.532 1-1.732ZM66 31.13l-17.034 9.884 1.121.673-1.03 1.715L48 42.766v20.451l17.042-10.416-1.323-.764 1-1.732 1.281.74V31.13Zm-1.006-1.728L46.991 19.146l-7.299 4.014v1.91h-2v-.81l-8.685 4.777 8.685 5.212v-2.155h2v3.355l7.316 4.39 17.986-10.437ZM46 41.566l-6.308-3.784v2.276c0 .33-.162.64-.434.825l-2.062 1.414-1.131-1.649 1.627-1.116v-2.95L28 30.765v15.416l.496-.34 1.131 1.65L28 48.608v3.825l18 10.801V41.566Zm22-12.172v23.382a1 1 0 0 1-.479.853l-20 12.224-.002-.003c-.01.006-.016.015-.026.02a.996.996 0 0 1-1.008-.013l-20-12A.999.999 0 0 1 26 53V29h.002L26 28.981a.999.999 0 0 1 .518-.857l20-11a.997.997 0 0 1 .977.007l20 11.394c.31.177.504.507.505.865v.004ZM53.343 45.976l-2.572-1.545 1.029-1.714 2.573 1.544-1.03 1.715Z"/></g></svg>