<svg xmlns="http://www.w3.org/2000/svg" width="80" height="80"><defs><linearGradient id="a" x1="0%" x2="100%" y1="100%" y2="0%"><stop offset="0%" stop-color="#1B660F"/><stop offset="100%" stop-color="#6CAE3E"/></linearGradient></defs><g fill="none" fill-rule="evenodd"><path fill="url(#a)" d="M0 0h80v80H0z"/><path fill="#FFF" d="M65.682 51.59c-.23-.237-.669-.602-1.474-1.108l-.117.87c.788.183 1.288.235 1.591.238Zm-1.777-13.993c-.137-1.19-5.672-3.883-14.336-3.883-8.663 0-14.198 2.693-14.334 3.883l.019.153c.472 1.356 6.193 3.284 14.315 3.284 8.124 0 13.844-1.928 14.316-3.284l.02-.153Zm-.377 2.955c-3.066 1.634-8.639 2.482-13.959 2.482s-10.893-.848-13.957-2.482l1.459 10.836a7.316 7.316 0 0 1 2.769 1.735 7.564 7.564 0 0 1 1.315 1.756 3.367 3.367 0 0 1 2.558-.266c1.362.403 2.303 1.559 2.604 3.154.6.182 1.207.458 1.74.795 1.668 1.055 2.513 2.428 2.513 4.082 0 1.348-.367 2.465-1.051 3.356h.05c2.556 0 5.109-.265 7.187-.746a14.945 14.945 0 0 0 2.114-.635c1.174-.465 1.527-.879 1.558-.987a.74.74 0 0 1 .007-.115l1.441-10.701c-4.103-1.27-9.578-3.801-11.891-4.904A1.473 1.473 0 0 1 49.5 48c-.827 0-1.5-.673-1.5-1.5s.673-1.5 1.5-1.5a1.5 1.5 0 0 1 1.458 1.161c1.864.886 7.195 3.36 11.19 4.64l1.38-10.249ZM48.57 62.644c0-.648-.18-1.505-1.582-2.392a5.082 5.082 0 0 0-1.756-.692.999.999 0 0 1-.83-1.058c-.095-1.032-.561-1.766-1.256-1.971-.567-.166-1.181.053-1.562.56a.985.985 0 0 1-.948.389 1.002 1.002 0 0 1-.793-.651c-.33-.918-.804-1.686-1.408-2.283-.546-.539-1.796-1.536-3.566-1.536-.624 0-1.31.123-2.053.433-1.607.669-2.914 2.678-2.914 4.476 0 .206.011.41.036.609a1 1 0 0 1-.749 1.092c-1.128.283-2.473 1.055-2.473 3.122 0 1.694.947 2.612 1.742 3.084.191.114.426.173.681.174l15.909.016.314-.002c.666-.016 3.208-.281 3.208-3.37Zm-20.668-4.707v-.018c0-2.619 1.781-5.337 4.144-6.322a7.28 7.28 0 0 1 2.957-.571l-1.721-12.787.033-.004c-.002-.009-.008-.017-.01-.025a.733.733 0 0 1-.023-.124l-.041-.315a.932.932 0 0 1-.009-.129c0-1.685 1.919-3.103 4.768-4.132V15.565c0-.863-.702-1.565-1.565-1.565H15.566c-.863 0-1.566.702-1.566 1.565v44.87c0 .863.703 1.565 1.566 1.565h9.199c.231-1.895 1.354-3.351 3.137-4.063ZM29.137 68a3.34 3.34 0 0 1-1.7-.454c-.849-.504-2.161-1.593-2.578-3.546H19v4h-2v-4h-1.434A3.57 3.57 0 0 1 12 60.435v-44.87A3.57 3.57 0 0 1 15.566 12h20.869A3.569 3.569 0 0 1 40 15.565V32.89c2.845-.751 6.252-1.176 9.569-1.176 7.89 0 16.339 2.382 16.339 5.928a.932.932 0 0 1-.009.129l-.041.315a.85.85 0 0 1-.024.124c-.002.008-.007.016-.009.025l.033.004-1.36 10.088c2.183 1.256 3.221 2.238 3.406 3.226.091.492-.034.973-.356 1.354-.382.455-.97.682-1.837.682-.519 0-1.15-.089-1.887-.251l-1.4 10.391c-.042 1.102-.99 2.027-2.819 2.75-.692.273-1.498.516-2.399.724-2.221.513-4.933.797-7.637.797-.893 0-3.317-.004-4.218 0H29.137ZM19 33h15v-2H19v2Zm0 7h11v-2H19v2Zm0-14h15v-2H19v2Z"/></g></svg>