<svg xmlns="http://www.w3.org/2000/svg" width="80" height="80"><defs><linearGradient id="a" x1="0%" x2="100%" y1="100%" y2="0%"><stop offset="0%" stop-color="#055F4E"/><stop offset="100%" stop-color="#56C0A7"/></linearGradient></defs><g fill="none" fill-rule="evenodd"><path fill="url(#a)" d="M0 0h80v80H0z"/><path fill="#FFF" d="M51.731 50c-3.286 0-5.96-2.691-5.96-6s2.674-6 5.96-6c3.287 0 5.96 2.691 5.96 6s-2.673 6-5.96 6Zm0-14c-4.381 0-7.946 3.589-7.946 8s3.565 8 7.946 8c4.382 0 7.947-3.589 7.947-8s-3.565-8-7.947-8Zm.994 11c0 .552-.444 1-.994 1a.996.996 0 0 1-.993-1c0-.552.444-1 .993-1 .55 0 .994.448.994 1Zm-1.987-2h1.987v-5h-1.987v5Zm11.137-12.656 2.202-3.713 1.705 1.025-2.202 3.713-1.705-1.025Zm-13.913-3.072-1.298-3.91 1.884-.634 1.298 3.91-1.884.634Zm7.772-.515.994-4 1.927.486-.994 4-1.927-.486Zm9.783 30.126c-.419.424-1.048.7-1.424.321l-5.354-5.518c.62-.456 1.194-.97 1.715-1.536l5.388 5.278c.367.37.114 1.012-.325 1.455ZM41.8 44c0-5.514 4.455-10 9.932-10s9.933 4.486 9.933 10-4.456 10-9.933 10c-5.477 0-9.932-4.486-9.932-10Zm-3.936 6.077C36.96 48.825 35.504 48 33.853 48c-.13 0-.251.028-.377.038l-4.238-7.998 3.985-8.104c.208.027.414.064.63.064a4.896 4.896 0 0 0 3.02-1.06l6.623 4.406a11.997 11.997 0 0 0-2.813 13.137l-2.82 1.594ZM33.853 56c-1.644 0-2.98-1.346-2.98-3s1.336-3 2.98-3c1.642 0 2.98 1.346 2.98 3s-1.338 3-2.98 3Zm-13.316 3.54a5.065 5.065 0 0 0-.62-.539l5.306-10.792 4.054 2.847A5.004 5.004 0 0 0 28.886 53c0 .636.13 1.239.345 1.798l-8.694 4.742ZM16.967 66c-1.643 0-2.98-1.346-2.98-3s1.337-3 2.98-3c1.642 0 2.98 1.346 2.98 3s-1.338 3-2.98 3Zm13.442-16.589-4.295-3.015 2.04-4.15 3.372 6.364c-.407.22-.788.48-1.117.801Zm-9.363-6.572a4.982 4.982 0 0 0 .483-4.809l3.107-2.428 2.368 4.473-2.538 5.164-3.42-2.4Zm-4.08.161c-1.642 0-2.98-1.346-2.98-3s1.338-3 2.98-3c1.643 0 2.98 1.346 2.98 3s-1.337 3-2.98 3Zm2.378-21.638a4.976 4.976 0 0 0 1.4-1.154l8.32 5.537A4.94 4.94 0 0 0 28.887 27c0 .831.222 1.604.58 2.294l-4.187 3.272-5.935-11.204ZM13.987 17c0-1.654 1.337-3 2.98-3 1.642 0 2.98 1.346 2.98 3s-1.338 3-2.98 3c-1.643 0-2.98-1.346-2.98-3Zm16.732 13.847c.192.159.393.305.608.435l-3.239 6.587-1.86-3.512 4.491-3.51ZM33.852 24c1.643 0 2.98 1.346 2.98 3s-1.337 3-2.98 3-2.98-1.346-2.98-3 1.337-3 2.98-3Zm33.384 32.004-5.544-5.432A11.978 11.978 0 0 0 63.651 44c0-6.617-5.347-12-11.92-12-2.446 0-4.722.748-6.615 2.025l-6.939-4.616A4.963 4.963 0 0 0 38.819 27c0-2.757-2.228-5-4.967-5-1.588 0-2.988.768-3.897 1.939l-8.259-5.494c.14-.461.237-.939.237-1.445 0-2.757-2.228-5-4.967-5C14.228 12 12 14.243 12 17s2.228 5 4.966 5c.15 0 .292-.031.438-.045l6.283 11.856-3.302 2.58A4.918 4.918 0 0 0 16.966 35C14.228 35 12 37.243 12 40s2.228 5 4.966 5a4.9 4.9 0 0 0 2.602-.76l4.006 2.812-5.456 11.097A4.921 4.921 0 0 0 16.966 58C14.228 58 12 60.243 12 63s2.228 5 4.966 5c2.739 0 4.967-2.243 4.967-5 0-.623-.127-1.213-.335-1.763l8.707-4.749A4.93 4.93 0 0 0 33.852 58c2.739 0 4.967-2.243 4.967-5 0-.377-.05-.742-.13-1.096l2.897-1.637C43.686 53.699 47.442 56 51.73 56c1.892 0 3.673-.458 5.264-1.25l5.685 5.86c.51.512 1.163.764 1.847.764.821 0 1.686-.364 2.395-1.077 1.304-1.314 1.445-3.155.314-4.293Z"/></g></svg>