<svg xmlns="http://www.w3.org/2000/svg" width="80" height="80"><defs><linearGradient id="a" x1="0%" x2="100%" y1="100%" y2="0%"><stop offset="0%" stop-color="#B0084D"/><stop offset="100%" stop-color="#FF4F8B"/></linearGradient></defs><g fill="none" fill-rule="evenodd"><path fill="url(#a)" d="M0 0h80v80H0z"/><path fill="#FFF" d="M61.084 60a4.921 4.921 0 0 1-4.915-4.916 4.922 4.922 0 0 1 4.915-4.916A4.922 4.922 0 0 1 66 55.084 4.921 4.921 0 0 1 61.084 60Zm0-11.832c-3.813 0-6.915 3.103-6.915 6.916S57.271 62 61.084 62A6.924 6.924 0 0 0 68 55.084a6.924 6.924 0 0 0-6.916-6.916Zm0-3.168a4.921 4.921 0 0 1-4.915-4.916 4.922 4.922 0 0 1 4.915-4.916A4.922 4.922 0 0 1 66 40.084 4.921 4.921 0 0 1 61.084 45Zm0-11.832c-3.813 0-6.915 3.103-6.915 6.916S57.271 47 61.084 47A6.924 6.924 0 0 0 68 40.084a6.924 6.924 0 0 0-6.916-6.916Zm0-3.336a4.922 4.922 0 0 1-4.915-4.916A4.921 4.921 0 0 1 61.084 20 4.921 4.921 0 0 1 66 24.916a4.922 4.922 0 0 1-4.916 4.916Zm0-11.832c-3.813 0-6.915 3.103-6.915 6.916s3.102 6.916 6.915 6.916A6.924 6.924 0 0 0 68 24.916 6.924 6.924 0 0 0 61.084 18ZM68 12v2H50v52h18v2H49a1 1 0 0 1-1-1V41H32.105v-2H48V13a1 1 0 0 1 1-1h19ZM14 46.333V33.667L25.875 40 14 46.333Zm14.471-7.215-15-8A1 1 0 0 0 12 32v16a1 1 0 0 0 1.471.882l15-8a1 1 0 0 0 0-1.764ZM14 26h12V14H14v12Zm-1 2h14a1 1 0 0 0 1-1V13a1 1 0 0 0-1-1H13a1 1 0 0 0-1 1v14a1 1 0 0 0 1 1Zm7.258 38A6.266 6.266 0 0 1 14 59.742a6.265 6.265 0 0 1 6.258-6.258 6.266 6.266 0 0 1 6.259 6.258A6.266 6.266 0 0 1 20.258 66Zm0-14.516c-4.554 0-8.258 3.704-8.258 8.258C12 64.295 15.704 68 20.258 68c4.554 0 8.259-3.705 8.259-8.258 0-4.554-3.705-8.258-8.259-8.258Z"/></g></svg>