<svg xmlns="http://www.w3.org/2000/svg" width="80" height="80"><defs><linearGradient id="a" x1="0%" x2="100%" y1="100%" y2="0%"><stop offset="0%" stop-color="#055F4E"/><stop offset="100%" stop-color="#56C0A7"/></linearGradient></defs><g fill="none" fill-rule="evenodd"><path fill="url(#a)" d="M0 0h80v80H0z"/><path fill="#FFF" d="M19.095 21.664a2.568 2.568 0 0 1 2.565-2.567 2.57 2.57 0 0 1 2.567 2.567 2.57 2.57 0 0 1-2.567 2.567 2.568 2.568 0 0 1-2.565-2.567Zm7.132 0a4.572 4.572 0 0 0-4.567-4.567 4.57 4.57 0 0 0-4.565 4.567 4.57 4.57 0 0 0 4.565 4.567 4.572 4.572 0 0 0 4.567-4.567ZM59.878 64a5.129 5.129 0 0 1-5.123-5.125 5.13 5.13 0 0 1 5.123-5.125A5.13 5.13 0 0 1 65 58.875 5.129 5.129 0 0 1 59.878 64ZM41.529 37.443a3.08 3.08 0 0 1 3.075 3.076 3.08 3.08 0 0 1-3.075 3.078 3.08 3.08 0 0 1-3.076-3.078 3.08 3.08 0 0 1 3.076-3.076Zm-4.239.298a5.036 5.036 0 0 0-.837 2.778c0 2.8 2.277 5.078 5.076 5.078a5.082 5.082 0 0 0 5.075-5.078 5.081 5.081 0 0 0-5.075-5.076c-1.05 0-2.027.321-2.837.869l-4.612-4.173a11.166 11.166 0 0 1 7.449-2.85c6.19 0 11.226 5.038 11.226 11.23 0 6.193-5.036 11.231-11.226 11.231-6.191 0-11.227-5.038-11.227-11.231 0-2.613.904-5.015 2.406-6.925l4.582 4.147ZM41.529 65c-13.495 0-24.472-10.982-24.472-24.481 0-3.331.661-6.545 1.95-9.571a9.61 9.61 0 0 0 2.653.38 9.62 9.62 0 0 0 6.121-2.194l3.441 3.114a13.159 13.159 0 0 0-2.92 8.271c0 7.296 5.934 13.231 13.227 13.231s13.226-5.935 13.226-13.231c0-7.295-5.933-13.23-13.226-13.23-3.447 0-6.58 1.336-8.936 3.504l-3.407-3.085a9.614 9.614 0 0 0 2.135-6.044 9.611 9.611 0 0 0-.533-3.136 24.169 24.169 0 0 1 10.741-2.489c4.046 0 8.024 1.014 11.563 2.915A6.94 6.94 0 0 0 53.005 20c0 3.86 3.139 7 6.997 7 .608 0 1.195-.086 1.757-.232A24.293 24.293 0 0 1 66 40.519c0 4.188-1.079 8.283-3.103 11.913a7.055 7.055 0 0 0-3.019-.682c-3.928 0-7.123 3.197-7.123 7.125a7.07 7.07 0 0 0 .681 3.02A24.414 24.414 0 0 1 41.529 65ZM14 21.664C14 17.438 17.437 14 21.66 14c4.224 0 7.661 3.438 7.661 7.664 0 4.226-3.437 7.664-7.661 7.664-4.223 0-7.66-3.438-7.66-7.664Zm46.002-6.663A5.004 5.004 0 0 1 65 20c0 2.757-2.242 5-4.998 5a5.004 5.004 0 0 1-4.997-5 5.004 5.004 0 0 1 4.997-4.999Zm4.57 38.53A26.437 26.437 0 0 0 68 40.519a26.286 26.286 0 0 0-4.37-14.544A6.995 6.995 0 0 0 67 20c0-3.859-3.139-6.999-6.998-6.999-2.786 0-5.189 1.641-6.314 4.004a26.474 26.474 0 0 0-12.159-2.966c-4.013 0-8.001.931-11.585 2.678C28.254 13.897 25.178 12 21.66 12 16.334 12 12 16.335 12 21.664c0 3.699 2.091 6.916 5.151 8.54a26.254 26.254 0 0 0-2.094 10.315C15.057 55.121 26.932 67 41.529 67c4.576 0 9.049-1.192 13.005-3.429A7.099 7.099 0 0 0 59.878 66C63.805 66 67 62.804 67 58.875a7.101 7.101 0 0 0-2.428-5.344Z"/></g></svg>