<svg xmlns="http://www.w3.org/2000/svg" width="80" height="80"><defs><linearGradient id="a" x1="0%" x2="100%" y1="100%" y2="0%"><stop offset="0%" stop-color="#055F4E"/><stop offset="100%" stop-color="#56C0A7"/></linearGradient></defs><g fill="none" fill-rule="evenodd"><path fill="url(#a)" d="M0 0h80v80H0z"/><path fill="#FFF" d="M40.023 39.004h7.006v-2h-7.006v2Zm3.002 11h2.002v-5h-2.002v5Zm-15.012-17h4.003v-2h-4.003v2Zm-11.01 11h15.013v-2H17.003v2Zm0-5h21.018v-2H17.003v2Zm23.02 13h2.001v-9h-2.001v9Zm15.012 0h2.002v-8h-2.002v8Zm-3.002 2h2.001v-13h-2.001v13Zm-3.003-1h2.002v-11H49.03v11Zm-3.001-1h2.001v-9H46.03v9Zm20.828 13.121-4.565-8.928a16.851 16.851 0 0 0 2.42-8.75c0-9.432-7.676-17.107-17.111-17.107-2.796 0-5.564.685-8.004 1.98l.939 1.767A15.108 15.108 0 0 1 47.6 32.34c8.33 0 15.11 6.777 15.11 15.108 0 2.927-.832 5.745-2.407 8.15a1 1 0 0 0-.054 1.004l3.84 7.508-7.64-3.821a1.004 1.004 0 0 0-.968.04 15.191 15.191 0 0 1-7.881 2.215c-7.521 0-13.96-5.603-14.977-13.032l-1.983.27c1.152 8.416 8.443 14.762 16.96 14.762 2.951 0 5.857-.767 8.439-2.224l9.103 4.553a1.302 1.302 0 0 0 1.495-.269 1.28 1.28 0 0 0 .219-1.479Zm-49.854-32.12h9.008v-2h-9.008v2Zm14.012-9h7.592l-7.592-7.587v7.586Zm-16.013 15H13V14.003a1 1 0 0 1 1-1L30.015 13c.261 0 .518.106.708.297l11.009 11c.191.192.293.448.293.707v3h-2.001v-2H30.014a1 1 0 0 1-1-1V15l-14.012.004v24Zm0 13h14.011v2H14.001a1 1 0 0 1-1.001-1v-9h2.002v8Z"/></g></svg>