<svg xmlns="http://www.w3.org/2000/svg" width="80" height="80"><defs><linearGradient id="a" x1="0%" x2="100%" y1="100%" y2="0%"><stop offset="0%" stop-color="#2E27AD"/><stop offset="100%" stop-color="#527FFF"/></linearGradient></defs><g fill="none" fill-rule="evenodd"><path fill="url(#a)" d="M0 0h80v80H0z"/><path fill="#FFF" d="M12 13v54h34v-2H14V23h52v42h-7v2h9V13H12Zm2 8h52v-6H14v6Zm11-2h2.001v-2.001H25V19Zm-4 0h2v-2.001h-2V19Zm-4 0h2v-2.001h-2V19Zm6.326 14.432 10.08 10.082-10.08 10.08 1.414 1.414 11.494-11.494L24.74 32.018l-1.414 1.414ZM38 51h17v-2H38v2Z"/></g></svg>