<svg xmlns="http://www.w3.org/2000/svg" width="80" height="80"><defs><linearGradient id="a" x1="0%" x2="100%" y1="100%" y2="0%"><stop offset="0%" stop-color="#1B660F"/><stop offset="100%" stop-color="#6CAE3E"/></linearGradient></defs><g fill="none" fill-rule="evenodd"><path fill="url(#a)" d="M0 0h80v80H0z"/><path fill="#FFF" d="m58 48.912-4.798-2.056 1.479-.878A4.452 4.452 0 0 0 57.5 47a4.472 4.472 0 0 0 3.11-1.262l2.107 1.153L58 48.912ZM57.5 40c1.379 0 2.5 1.121 2.5 2.5 0 1.378-1.121 2.5-2.5 2.5a2.503 2.503 0 0 1-2.5-2.5c0-1.379 1.12-2.5 2.5-2.5ZM40 36c-3.859 0-7-3.14-7-7s3.141-7 7-7 7 3.14 7 7-3.141 7-7 7Zm3 15c0 1.654-1.346 3-3 3s-3-1.346-3-3 1.346-3 3-3 3 1.346 3 3Zm-3 7.848-4.882-2.79 1.99-.994A4.963 4.963 0 0 0 40 56a4.963 4.963 0 0 0 2.892-.936l1.99.994L40 58.848Zm-17.901-9.936-4.78-2.018 2.107-1.126A4.473 4.473 0 0 0 22.5 47a4.458 4.458 0 0 0 2.843-1.041l1.483.896-4.727 2.057ZM22.5 40c1.379 0 2.5 1.121 2.5 2.5 0 1.378-1.121 2.5-2.5 2.5a2.503 2.503 0 0 1-2.5-2.5c0-1.379 1.121-2.5 2.5-2.5Zm42.98 6.122-3.774-2.065A4.454 4.454 0 0 0 62 42.5c0-2.482-2.02-4.5-4.5-4.5-.898 0-1.732.271-2.437.727l-6.874-6.015a8.932 8.932 0 0 0 .81-3.712c0-4.963-4.036-9-9-9C35.038 20 31 24.037 31 29c0 1.324.295 2.579.811 3.712l-6.874 6.015A4.472 4.472 0 0 0 22.5 38a4.505 4.505 0 0 0-4.5 4.5c0 .564.116 1.1.307 1.599l-3.779 2.019a1 1 0 0 0 .083 1.803l7.105 3a.99.99 0 0 0 .788-.004l6.895-3a1.002 1.002 0 0 0 .119-1.773l-2.937-1.774A4.457 4.457 0 0 0 27 42.5c0-.858-.254-1.651-.672-2.334l6.529-5.712A8.994 8.994 0 0 0 39 37.941v8.16A5.009 5.009 0 0 0 35 51c0 .926.27 1.782.71 2.527l-3.157 1.578a1.002 1.002 0 0 0-.049 1.763l7 4a.996.996 0 0 0 .992 0l7-4a1.001 1.001 0 0 0-.05-1.763l-3.156-1.578c.44-.745.71-1.601.71-2.527a5.009 5.009 0 0 0-4-4.899v-8.16a8.994 8.994 0 0 0 6.143-3.487l6.529 5.712A4.452 4.452 0 0 0 53 42.5c0 .679.162 1.316.432 1.893l-2.943 1.747a1.002 1.002 0 0 0 .117 1.779l7 3a.996.996 0 0 0 .788 0l7-3a1.001 1.001 0 0 0 .086-1.797Z"/></g></svg>