<svg xmlns="http://www.w3.org/2000/svg" width="80" height="80"><defs><linearGradient id="a" x1="0%" x2="100%" y1="100%" y2="0%"><stop offset="0%" stop-color="#1B660F"/><stop offset="100%" stop-color="#6CAE3E"/></linearGradient></defs><g fill="none" fill-rule="evenodd"><path fill="url(#a)" d="M0 0h80v80H0z"/><path fill="#FFF" d="M50.406 55.813A5.412 5.412 0 0 1 45 50.406 5.412 5.412 0 0 1 50.406 45a5.412 5.412 0 0 1 5.406 5.406 5.412 5.412 0 0 1-5.406 5.407Zm0-12.813C46.322 43 43 46.322 43 50.406s3.322 7.407 7.406 7.407 7.406-3.323 7.406-7.407S54.49 43 50.406 43Zm15.301 21.114a1.152 1.152 0 0 1-1.62.085L58.102 58.8a11.438 11.438 0 0 0 1.524-1.706l5.995 5.4c.469.424.507 1.152.086 1.62ZM41 50.406C41 45.22 45.219 41 50.406 41s9.406 4.22 9.406 9.406c0 5.187-4.219 9.407-9.406 9.407S41 55.593 41 50.406Zm25.961 10.603-6.289-5.664a11.32 11.32 0 0 0 1.14-4.939C61.812 44.117 56.695 39 50.406 39 44.117 39 39 44.117 39 50.406c0 6.29 5.117 11.407 11.406 11.407 2.237 0 4.319-.657 6.082-1.774l6.261 5.647c.6.539 1.352.804 2.102.804.862 0 1.721-.35 2.342-1.038a3.158 3.158 0 0 0-.232-4.443ZM19 40.888c1.116-.247 2.103-.906 2.826-1.783l5.582 3.987A4.729 4.729 0 0 0 27 45c0 2.323 1.778 4.396 4 4.888V64H19V40.888ZM15 36c0-1.546 1.458-3.009 3-3.009s3 1.463 3 3.009c0 1.542-1.458 3-3 3s-3-1.458-3-3Zm17 6c1.542 0 3 1.458 3 3s-1.458 3-3 3-3-1.458-3-3 1.458-3 3-3Zm14-19c1.542 0 3 1.458 3 3s-1.458 3-3 3-3-1.458-3-3 1.458-3 3-3Zm15-6c1.542 0 3 1.458 3 3s-1.458 3-3 3-3-1.458-3-3 1.458-3 3-3ZM33 49.888c2.221-.492 4-2.565 4-4.888 0-1.001-.33-1.956-.884-2.757l8.519-11.474c.123.038.24.091.365.119V37h2v-6.112c2.221-.492 4-2.565 4-4.888 0-.134-.032-.263-.043-.395l5.697-3.256c.71 1.256 1.928 2.225 3.346 2.539V40h2V24.888c2.221-.492 4-2.565 4-4.888s-1.779-4.395-4-4.888V13h-2v2.112c-2.222.493-4 2.565-4 4.888 0 .134.031.263.043.396l-5.698 3.255c-.71-1.256-1.927-2.225-3.345-2.539V13h-2v8.112c-2.222.493-4 2.565-4 4.888 0 1.494.749 2.867 1.864 3.801l-8.193 11.033A5.016 5.016 0 0 0 33 40.112V13h-2v27.112a5.12 5.12 0 0 0-2.444 1.343l-5.775-4.126c.128-.429.219-.87.219-1.329 0-2.328-1.779-4.403-4-4.896V13h-2v18.104c-2.222.493-4 2.568-4 4.896 0 2.323 1.778 4.396 4 4.888V66h35v-2H33V49.888Z"/></g></svg>