<svg xmlns="http://www.w3.org/2000/svg" width="80" height="80"><defs><linearGradient id="a" x1="0%" x2="100%" y1="100%" y2="0%"><stop offset="0%" stop-color="#1B660F"/><stop offset="100%" stop-color="#6CAE3E"/></linearGradient></defs><g fill="none" fill-rule="evenodd"><path fill="url(#a)" d="M0 0h80v80H0z"/><path fill="#FFF" d="M41.5 42.502a2.5 2.5 0 1 0 0-5 2.5 2.5 0 0 0 0 5ZM48 40c0 3.309 2.691 6 6 6s6-2.691 6-6-2.691-6-6-6-6 2.691-6 6Zm-2 0c0-4.411 3.589-8 8-8s8 3.589 8 8-3.589 8-8 8-8-3.589-8-8Zm-31 0c0 5.794 3.785 10 9 10 .03 0 .06.002.089.004h31.822c.029-.002.059-.004.089-.004 5.215 0 9-4.206 9-10 0-5.792-3.785-9.996-9-9.996-.03 0-.06-.002-.089-.004H24.089a1.295 1.295 0 0 1-.089.004c-5.215 0-9 4.204-9 9.996Zm-2 0c0-6.917 4.581-11.947 10.907-11.996.031-.002.062-.004.093-.004h32c.031 0 .063.002.093.004C62.419 28.053 67 33.083 67 40c0 6.92-4.581 11.951-10.907 12-.03.002-.062.004-.093.004H24c-.031 0-.062-.002-.093-.004C17.581 51.951 13 46.919 13 40Zm4-23h9v-2H16a1 1 0 0 0-1 1v10h2v-9Zm46 9h2V16a1 1 0 0 0-1-1H54v2h9v9ZM17 54h-2v10a1 1 0 0 0 1 1h10v-2h-9v-9Zm46 0h2v10a1 1 0 0 1-1 1H54v-2h9v-9Z"/></g></svg>