<svg xmlns="http://www.w3.org/2000/svg" width="80" height="80"><defs><linearGradient id="a" x1="0%" x2="100%" y1="100%" y2="0%"><stop offset="0%" stop-color="#BD0816"/><stop offset="100%" stop-color="#FF5252"/></linearGradient></defs><g fill="none" fill-rule="evenodd"><path fill="url(#a)" d="M0 0h80v80H0z"/><path fill="#FFF" d="M37 38c-2.43 0-4-1.57-4-4 0-2.43 1.57-4 4-4 2.43 0 4 1.57 4 4 0 2.43-1.57 4-4 4Zm15-5h-9.076c-.423-2.988-2.736-5-5.924-5-3.532 0-6 2.467-6 6s2.468 6 6 6c3.188 0 5.501-2.012 5.924-5H52v-2Zm-25 1c0 5.595 4.393 9.979 10 9.979 4.01 0 7.563-2.865 9.052-7.297l1.896.636c-1.767 5.261-6.064 8.661-10.948 8.661-6.617 0-12-5.374-12-11.979 0-6.617 5.383-12 12-12 5.239 0 9.332 2.872 10.948 7.682l-1.896.636C44.703 26.303 41.404 24 37 24c-5.514 0-10 4.486-10 10ZM14 45h3v-5h-3v5Zm0-18h3v-5h-3v5Zm5 19V15h37v27h2V15c0-1.845-1.032-2-2-2H19c-.968 0-2 .155-2 2v5h-4a1 1 0 0 0-1 1v7a1 1 0 0 0 1 1h4v9h-4a1 1 0 0 0-1 1v7a1 1 0 0 0 1 1h4v6c0 1.551.448 2 2 2h21v-2H19v-7Zm47 20h-1.586l-1.707-1.707A.996.996 0 0 0 62 64h-2v-1a.997.997 0 0 0-.293-.707l-1-1A.996.996 0 0 0 58 61h-2v-2a.997.997 0 0 0-.293-.707l-1.54-1.541a1.001 1.001 0 0 0-1.171-.258 6.021 6.021 0 0 1-8.5-5.479A6.021 6.021 0 0 1 50.511 45a6.021 6.021 0 0 1 6.014 6.015c0 1.068-.146 1.934-.436 2.572a1 1 0 0 0 .204 1.12L66 64.414V66Zm1.707-2.707-9.545-9.545c.241-.777.363-1.693.363-2.733 0-4.42-3.595-8.015-8.014-8.015-4.419 0-8.015 3.595-8.015 8.015 0 4.419 3.596 8.014 8.015 8.014.915 0 1.804-.151 2.654-.449l.835.834V62a1 1 0 0 0 1 1h2.586l.414.414V65a1 1 0 0 0 1 1h2.586l1.707 1.707A.996.996 0 0 0 64 68h3a1 1 0 0 0 1-1v-3a.997.997 0 0 0-.293-.707ZM50.511 52.029a1.016 1.016 0 0 1 0-2.029 1.016 1.016 0 0 1 0 2.029Zm0-4.029a3.019 3.019 0 0 0-3.015 3.015 3.018 3.018 0 0 0 3.015 3.014 3.017 3.017 0 0 0 3.014-3.014A3.018 3.018 0 0 0 50.511 48Z"/></g></svg>