<svg xmlns="http://www.w3.org/2000/svg" width="80" height="80"><defs><linearGradient id="a" x1="0%" x2="100%" y1="100%" y2="0%"><stop offset="0%" stop-color="#055F4E"/><stop offset="100%" stop-color="#56C0A7"/></linearGradient></defs><g fill="none" fill-rule="evenodd"><path fill="url(#a)" d="M0 0h80v80H0z"/><path fill="#FFF" d="m30.793 35.258 9-9a.999.999 0 0 1 1.414 0l9 9-1.414 1.414-8.293-8.293-8.293 8.293-1.414-1.414Zm10.414 3 9 9-1.414 1.414-8.293-8.293-8.293 8.293-1.414-1.414 9-9a.999.999 0 0 1 1.414 0Zm9 3-1.414 1.414-8.293-8.293-8.293 8.293-1.414-1.414 9-9a.999.999 0 0 1 1.414 0l9 9Zm6.564 13.969a2.507 2.507 0 0 1-3.537 0 2.486 2.486 0 0 1-.732-1.768 2.496 2.496 0 0 1 2.501-2.499c.64 0 1.28.244 1.768.731a2.507 2.507 0 0 1 0 3.536Zm-14.503 7.995c-.944.945-2.592.945-3.536 0A2.484 2.484 0 0 1 38 61.454c0-.667.26-1.295.732-1.767a2.484 2.484 0 0 1 1.768-.732c.668 0 1.296.26 1.768.732s.732 1.1.732 1.767c0 .668-.26 1.296-.732 1.768Zm-17.032-7.989a2.486 2.486 0 0 1-.732-1.768c0-.668.26-1.295.732-1.768a2.484 2.484 0 0 1 1.768-.732c.668 0 1.296.26 1.768.732.472.473.732 1.1.732 1.768 0 .668-.26 1.295-.732 1.768-.946.944-2.59.944-3.536 0Zm26.584-4.956a4.47 4.47 0 0 0-1.318 3.182c0 .473.093.929.232 1.367l-6.798 3.755c-.086-.102-.159-.213-.254-.308a4.47 4.47 0 0 0-3.182-1.318 4.47 4.47 0 0 0-3.182 1.318c-.077.077-.134.168-.205.25l-5.889-3.533a4.5 4.5 0 0 0 .28-1.525 4.47 4.47 0 0 0-1.318-3.182 4.47 4.47 0 0 0-3.182-1.318 4.47 4.47 0 0 0-3.182 1.318 4.47 4.47 0 0 0-1.318 3.182 4.47 4.47 0 0 0 1.318 3.182 4.47 4.47 0 0 0 3.182 1.318 4.462 4.462 0 0 0 3.144-1.288l6.023 3.613A4.487 4.487 0 0 0 36 61.454c0 1.202.468 2.333 1.318 3.182a4.466 4.466 0 0 0 3.182 1.318 4.466 4.466 0 0 0 3.182-1.318A4.469 4.469 0 0 0 45 61.454c0-.375-.061-.738-.149-1.093l6.896-3.809c.026.028.046.061.073.089a4.486 4.486 0 0 0 3.182 1.315 4.489 4.489 0 0 0 3.183-1.315 4.506 4.506 0 0 0 0-6.364 4.506 4.506 0 0 0-6.365 0Zm8.68-3.312a2.503 2.503 0 0 1-2.5-2.5c0-1.378 1.121-2.5 2.5-2.5s2.5 1.122 2.5 2.5-1.121 2.5-2.5 2.5Zm-2.5-19.5c0-1.378 1.121-2.5 2.5-2.5s2.5 1.122 2.5 2.5-1.121 2.5-2.5 2.5a2.503 2.503 0 0 1-2.5-2.5ZM46 21a2.502 2.502 0 0 1-2.5-2.5c0-1.378 1.121-2.5 2.5-2.5s2.5 1.122 2.5 2.5c0 1.379-1.121 2.5-2.5 2.5Zm15.5 19.086v-8.242c2-.457 3.5-2.242 3.5-4.379 0-2.481-2.019-4.5-4.5-4.5-1.05 0-2.004.376-2.77.98l-7.453-4.116c.131-.423.223-.863.223-1.329 0-2.481-2.019-4.5-4.5-4.5a4.505 4.505 0 0 0-4.5 4.5c0 2.482 2.019 4.5 4.5 4.5a4.471 4.471 0 0 0 3.278-1.438l7.178 3.965A4.456 4.456 0 0 0 56 27.465c0 2.137 1.5 3.922 3.5 4.379v8.242c-2 .457-3.5 2.242-3.5 4.379 0 2.481 2.019 4.5 4.5 4.5s4.5-2.019 4.5-4.5c0-2.137-1.5-3.922-3.5-4.379Zm-41 6.879a2.503 2.503 0 0 1-2.5-2.5c0-1.378 1.121-2.5 2.5-2.5s2.5 1.122 2.5 2.5-1.121 2.5-2.5 2.5Zm-2.5-19.5c0-1.378 1.121-2.5 2.5-2.5s2.5 1.122 2.5 2.5-1.121 2.5-2.5 2.5a2.503 2.503 0 0 1-2.5-2.5ZM35 16c1.379 0 2.5 1.122 2.5 2.5 0 1.379-1.121 2.5-2.5 2.5a2.502 2.502 0 0 1-2.5-2.5c0-1.378 1.121-2.5 2.5-2.5ZM25 44.465c0-2.137-1.5-3.922-3.5-4.379v-8.242c2-.457 3.5-2.242 3.5-4.379 0-.697-.173-1.349-.456-1.938l7.178-3.965A4.471 4.471 0 0 0 35 23c2.481 0 4.5-2.018 4.5-4.5 0-2.481-2.019-4.5-4.5-4.5a4.505 4.505 0 0 0-4.5 4.5c0 .466.092.906.223 1.329l-7.453 4.116a4.456 4.456 0 0 0-2.77-.98 4.505 4.505 0 0 0-4.5 4.5c0 2.137 1.5 3.922 3.5 4.379v8.242c-2 .457-3.5 2.242-3.5 4.379 0 2.481 2.019 4.5 4.5 4.5s4.5-2.019 4.5-4.5Z"/></g></svg>