<svg xmlns="http://www.w3.org/2000/svg" width="80" height="80"><defs><linearGradient id="a" x1="0%" x2="100%" y1="100%" y2="0%"><stop offset="0%" stop-color="#055F4E"/><stop offset="100%" stop-color="#56C0A7"/></linearGradient></defs><g fill="none" fill-rule="evenodd"><path fill="url(#a)" d="M0 0h80v80H0z"/><path fill="#FFF" d="M62 53.417 40 65.852 18 53.417V26.584l22-12.435 22 12.435v26.833Zm1.492-28.287-23-13a.998.998 0 0 0-.984 0l-23 13A.999.999 0 0 0 16 26v28a1 1 0 0 0 .508.87l23 13.001A.989.989 0 0 0 40 68c.17 0 .34-.042.492-.129l23-13A1 1 0 0 0 64 54V26a.999.999 0 0 0-.508-.87ZM42 25c0 1.104-.897 2-2 2s-2-.896-2-2c0-1.103.897-2 2-2s2 .897 2 2Zm13 11c0 1.104-.897 2-2 2s-2-.896-2-2c0-1.103.897-2 2-2s2 .897 2 2Zm-7 18c-1.103 0-2-.896-2-2 0-1.103.897-2 2-2s2 .897 2 2c0 1.104-.897 2-2 2Zm-3.712-9.716 2.192 4.02a3.994 3.994 0 0 0-1.122.716l-3.692-2.77 2.622-1.966Zm-9.646 4.736a3.994 3.994 0 0 0-1.122-.716l2.192-4.02 2.622 1.966-3.692 2.77ZM32 54c-1.103 0-2-.896-2-2 0-1.103.897-2 2-2s2 .897 2 2c0 1.104-.897 2-2 2Zm-7-18c0-1.103.897-2 2-2s2 .897 2 2c0 1.104-.897 2-2 2s-2-.896-2-2Zm6.371 12.064a3.959 3.959 0 0 0-.805.213L28.25 39.78a3.99 3.99 0 0 0 .9-.418l4.945 3.708-2.724 4.993ZM39 32.143c-1.721.447-3 1.999-3 3.857 0 .844.266 1.625.713 2.27l-1.65 3.028-4.555-3.416A3.947 3.947 0 0 0 31 36a3.94 3.94 0 0 0-.501-1.898l7.367-5.73c.346.219.728.38 1.134.486v3.285Zm-.729 7.449A3.957 3.957 0 0 0 40 40c.622 0 1.203-.154 1.729-.408l1.591 2.918L40 45l-3.32-2.49 1.591-2.918ZM40 34c1.103 0 2 .897 2 2 0 1.104-.897 2-2 2s-2-.896-2-2c0-1.103.897-2 2-2Zm8.629 14.064-2.724-4.993 4.945-3.708c.277.178.582.312.9.418l-2.316 8.496a3.959 3.959 0 0 0-.805-.213Zm-6.495-19.692 7.367 5.73A3.94 3.94 0 0 0 49 36c0 .684.188 1.318.492 1.882l-4.554 3.416-1.651-3.027A3.978 3.978 0 0 0 44 36c0-1.858-1.279-3.41-3-3.857v-3.285a3.975 3.975 0 0 0 1.134-.486ZM36 25c0 .69.191 1.332.501 1.899l-7.367 5.73a3.968 3.968 0 0 0-2.134-.63c-2.206 0-4 1.796-4 4a4.005 4.005 0 0 0 3.215 3.922l2.631 9.648a3.96 3.96 0 0 0-.846 2.43c0 2.207 1.794 4 4 4s4-1.793 4-4a3.96 3.96 0 0 0-.241-1.318L40 47.5l4.241 3.18A3.96 3.96 0 0 0 44 52c0 2.206 1.794 4 4 4s4-1.794 4-4a3.96 3.96 0 0 0-.846-2.431l2.631-9.648A4.005 4.005 0 0 0 57 36c0-2.205-1.794-4-4-4-.786 0-1.515.236-2.134.629l-7.367-5.73c.31-.567.501-1.208.501-1.9 0-2.204-1.794-4-4-4s-4 1.796-4 4Z"/></g></svg>