<svg xmlns="http://www.w3.org/2000/svg" width="80" height="80"><defs><linearGradient id="a" x1="0%" x2="100%" y1="100%" y2="0%"><stop offset="0%" stop-color="#B0084D"/><stop offset="100%" stop-color="#FF4F8B"/></linearGradient></defs><g fill="none" fill-rule="evenodd"><path fill="url(#a)" d="M0 0h80v80H0z"/><path fill="#FFF" d="M67.975 40.976H57.404l5.281 5.307-1.418 1.41-6.975-7.007a1 1 0 0 1 .001-1.411l6.975-6.993 1.416 1.412-5.269 5.283 10.562.01-.002 1.989Zm-42.291-1.701a.999.999 0 0 1 .001 1.41l-6.975 7.009-1.418-1.411 5.282-5.307H12.002L12 38.988l10.562-.011-5.269-5.283 1.416-1.412 6.975 6.993Zm20.6 20.017 1.41 1.417-7.008 6.975a.992.992 0 0 1-.705.292.994.994 0 0 1-.706-.292l-6.992-6.976 1.412-1.416 5.294 5.27V53.999l2 .002-.011 10.572 5.306-5.281ZM33.695 20.684l-1.412-1.416 6.992-6.976a.999.999 0 0 1 1.411 0l7.008 6.976-1.41 1.416-5.306-5.281.011 10.572h-2V15.415l-5.294 5.27Zm12.294 13.47c-.865-.232-1.817-.151-2.707.267a3.383 3.383 0 0 0-1.616 1.612c-.59 1.257-.524 2.618.184 3.733a3.726 3.726 0 0 0 3.159 1.737c.336 0 .664-.044.98-.13v2.603h-4a1 1 0 0 0-.691 1.724c.52.495.615 1.267.244 1.965-.124.233-.34.543-.674.7-.856.402-1.501.133-1.81-.061a1.737 1.737 0 0 1-.81-1.472c0-.601.165-.88.431-1.132a1 1 0 0 0-.69-1.724h-4V31.07a.655.655 0 0 1 .104-.094h11.896v3.179Zm1-5.178h-13c-.953 0-2 1.024-2 1.958v14.042a1 1 0 0 0 1 1h3.34a4.305 4.305 0 0 0-.081.856c0 1.288.65 2.469 1.738 3.16a3.702 3.702 0 0 0 1.997.583c.578 0 1.168-.133 1.736-.4.658-.31 1.208-.853 1.589-1.571.45-.847.563-1.777.36-2.628h3.321a1 1 0 0 0 1-1V39.65a1 1 0 0 0-1.724-.69c-.755.793-2.149.642-2.727-.266-.196-.31-.463-.954-.062-1.81.135-.285.368-.517.657-.653.786-.371 1.58-.243 2.132.334a1 1 0 0 0 1.724-.69v-5.9a1 1 0 0 0-1-1Z"/></g></svg>