<svg xmlns="http://www.w3.org/2000/svg" width="80" height="80"><defs><linearGradient id="a" x1="0%" x2="100%" y1="100%" y2="0%"><stop offset="0%" stop-color="#C8511B"/><stop offset="100%" stop-color="#F90"/></linearGradient></defs><g fill="none" fill-rule="evenodd"><path fill="url(#a)" d="M0 0h80v80H0z"/><path fill="#FFF" d="M45.949 58.553h2v4.656c0 .358-.19.688-.5.866l-6.566 3.791a.995.995 0 0 1-1 0l-6.566-3.79a1 1 0 0 1-.5-.867v-4.656h2v2.924l4.566-2.635v-4.08h2v4.657c0 .357-.191.687-.5.866l-5.066 2.924 4.566 2.636 5.566-3.213v-4.079ZM34.817 21.448h-2v-4.657a1 1 0 0 1 .5-.866l6.566-3.79a.998.998 0 0 1 1 0l6.566 3.79c.31.178.5.508.5.866v4.657h-2v-2.925l-4.566 2.636v4.08h-2v-4.657a1 1 0 0 1 .5-.866l5.066-2.925-4.566-2.636-5.566 3.213v4.08ZM62.765 32.35l-5.066-2.925a.998.998 0 0 0-1 0l-10.251 5.92-22.882 13.21L19 45.918l15.317-8.843a1 1 0 0 0 0-1.732l-9.751-5.63v-5.272l15.317 8.843a.998.998 0 0 0 1 0l16.316-9.42 5.566 3.213v5.272ZM46.448 42.925a1 1 0 0 0 0 1.732l9.751 5.63v5.272l-15.316-8.843a.998.998 0 0 0-1 0l-16.317 9.42L18 52.923v-5.272l5.066 2.924a.998.998 0 0 0 1 0l23.382-13.499 9.751-5.63 4.566 2.636-15.317 8.843Zm16.317 3.571v6.427l-4.566 2.636v-5.85a1 1 0 0 0-.5-.866l-8.751-5.052 4.565-2.636 9.252 5.341ZM18 33.506v-6.428l4.566-2.636v5.85a1 1 0 0 0 .5.865l8.751 5.053-4.566 2.636L18 33.506Zm46.765.576V26.5a1 1 0 0 0-.5-.866l-6.566-3.79a.998.998 0 0 0-1 0l-16.316 9.42-16.317-9.42a.998.998 0 0 0-1 0l-6.566 3.79a1 1 0 0 0-.5.866v7.582a1 1 0 0 0 .5.866L25.251 40 16.5 45.053a.997.997 0 0 0-.5.866V53.5c0 .358.19.688.5.866l6.566 3.791a.998.998 0 0 0 1 0l16.317-9.42 16.316 9.42a1 1 0 0 0 1 0l6.566-3.79c.31-.179.5-.509.5-.867v-7.58a.997.997 0 0 0-.5-.867L55.513 40l8.752-5.052a1 1 0 0 0 .5-.866Z"/></g></svg>