<svg xmlns="http://www.w3.org/2000/svg" width="80" height="80"><defs><linearGradient id="a" x1="0%" x2="100%" y1="100%" y2="0%"><stop offset="0%" stop-color="#2E27AD"/><stop offset="100%" stop-color="#527FFF"/></linearGradient></defs><g fill="none" fill-rule="evenodd"><path fill="url(#a)" d="M0 0h80v80H0z"/><path fill="#FFF" d="m65.5 37.669-11-6.351a1.008 1.008 0 0 0-1 0l-11 6.35a1 1 0 0 0-.5.867v10.047l2-1.156v-8.315l10-5.772 10 5.773v11.547l-10 5.775-6.799-3.926-2 1.154 8.299 4.791a1 1 0 0 0 1 0l11-6.35a1 1 0 0 0 .5-.867V38.535a1 1 0 0 0-.5-.866ZM23 39.782c0-3.584 2.916-6.5 6.5-6.5s6.5 2.916 6.5 6.5-2.916 6.5-6.5 6.5a6.508 6.508 0 0 1-6.5-6.5Zm42-13.817H16c-.553.317-1 .765-1 1.317v27.52a1 1 0 0 0 .504.868L36.78 67.832a.999.999 0 0 0 .992 0L51.828 59.8l-2.004-1.158-4.215 2.409a17.12 17.12 0 0 0-1.885-5.65l-.426-.639-1.733 1 .448.67a14.955 14.955 0 0 1 1.714 5.695l-6.451 3.688L17.84 54.703a14.614 14.614 0 0 1 11.658-5.782c2.642 0 5.21.727 7.433 2.105l.344.283 1.851-1.069-.977-.8a.953.953 0 0 0-.104-.076 16.009 16.009 0 0 0-4.755-1.985C36.077 45.98 38 43.106 38 39.782c0-4.686-3.813-8.5-8.5-8.5-4.687 0-8.5 3.814-8.5 8.5 0 3.313 1.909 6.18 4.682 7.583A16.596 16.596 0 0 0 17 52.545V27.966h47v5l2 1.154v-6.837c0-.552-.447-1-1-1.317Zm-44.983-2 16.992-9.812L54 23.965h4L37.509 12.133a1.003 1.003 0 0 0-1 0L16.016 23.965h4.001Zm13.574 34.091-1-1.732 19.236-11.106 1 1.731-19.236 11.108Z"/></g></svg>