<svg xmlns="http://www.w3.org/2000/svg" width="80" height="80"><defs><linearGradient id="a" x1="0%" x2="100%" y1="100%" y2="0%"><stop offset="0%" stop-color="#B0084D"/><stop offset="100%" stop-color="#FF4F8B"/></linearGradient></defs><g fill="none" fill-rule="evenodd"><path fill="url(#a)" d="M0 0h80v80H0z"/><path fill="#FFF" d="M50.871 37.366c0 4.687-3.813 8.5-8.5 8.5-4.687 0-8.5-3.813-8.5-8.5 0-4.687 3.813-8.5 8.5-8.5 4.687 0 8.5 3.813 8.5 8.5Zm2 0c0-5.79-4.71-10.5-10.5-10.5s-10.5 4.71-10.5 10.5 4.71 10.5 10.5 10.5 10.5-4.71 10.5-10.5ZM47.91 62.418a1 1 0 0 0 .272-.744l-.183-3.201a21.686 21.686 0 0 0 5.266-2.182l2.135 2.394c.183.205.443.326.718.334a.94.94 0 0 0 .735-.293l6.849-6.848a1 1 0 0 0-.041-1.453l-2.402-2.142a21.672 21.672 0 0 0 2.178-5.26l3.212.184a.997.997 0 0 0 1.058-.998v-9.685a1.005 1.005 0 0 0-1.057-.999l-3.216.183a21.682 21.682 0 0 0-2.179-5.255l2.406-2.146a1 1 0 0 0 .041-1.453l-6.849-6.848a.96.96 0 0 0-.735-.293 1.004 1.004 0 0 0-.718.334l-2.153 2.413a21.608 21.608 0 0 0-5.248-2.176l.183-3.227a.997.997 0 0 0-.272-.743.998.998 0 0 0-.727-.314h-9.684a1.001 1.001 0 0 0-.998 1.057l.182 3.225a21.656 21.656 0 0 0-5.251 2.174l-2.15-2.409a1 1 0 0 0-.718-.334.978.978 0 0 0-.735.293l-6.849 6.848a1.002 1.002 0 0 0 .041 1.453l2.412 2.151a21.656 21.656 0 0 0-2.182 5.25l-3.219-.183a.998.998 0 0 0-1.057.999v9.685a1.001 1.001 0 0 0 1.059.998l3.951-.231-.117-1.997-2.893.17v-7.567l2.991.17c.488.024.923-.301 1.032-.777a19.68 19.68 0 0 1 2.565-6.176 1.002 1.002 0 0 0-.179-1.281l-2.241-1.999 5.352-5.351 1.997 2.239a1 1 0 0 0 1.279.179 19.704 19.704 0 0 1 6.178-2.556.999.999 0 0 0 .778-1.033L38.558 14h7.567l-.17 2.999a1 1 0 0 0 .777 1.033 19.614 19.614 0 0 1 6.174 2.559c.411.258.954.185 1.28-.18l2.001-2.243 5.352 5.351-2.235 1.994a1 1 0 0 0-.18 1.28 19.677 19.677 0 0 1 2.562 6.181 1.01 1.01 0 0 0 1.033.778l2.988-.17v7.568l-2.984-.171a1.007 1.007 0 0 0-1.034.778 19.676 19.676 0 0 1-2.561 6.185 1 1 0 0 0 .18 1.28l2.231 1.99-5.351 5.352-1.984-2.224a.997.997 0 0 0-1.28-.18 19.666 19.666 0 0 1-6.192 2.565 1 1 0 0 0-.777 1.033l.17 2.973h-7.534l.136-1.546-1.992-.176-.232 2.634a1 1 0 0 0 .996 1.088h9.684a.997.997 0 0 0 .727-.313Zm-10.809-7.864-1.375-1.452-12.511 11.854 1.375 1.452 12.511-11.854Zm-11.855-7.9-1.371-1.456L12.68 55.735l1.371 1.456 11.195-10.537ZM13.414 67.706 12 66.292l19.756-19.756 1.414 1.414-19.756 19.756Z"/></g></svg>