<svg xmlns="http://www.w3.org/2000/svg" width="80" height="80"><defs><linearGradient id="a" x1="0%" x2="100%" y1="100%" y2="0%"><stop offset="0%" stop-color="#2E27AD"/><stop offset="100%" stop-color="#527FFF"/></linearGradient></defs><g fill="none" fill-rule="evenodd"><path fill="url(#a)" d="M0 0h80v80H0z"/><path fill="#FFF" d="M56.5 59.453c-1.93 0-3.5-1.57-3.5-3.5s1.57-3.5 3.5-3.5 3.5 1.57 3.5 3.5-1.57 3.5-3.5 3.5Zm0-9a5.506 5.506 0 0 0-5.5 5.5c0 3.033 2.468 5.5 5.5 5.5s5.5-2.467 5.5-5.5-2.468-5.5-5.5-5.5Zm10.236 6.539-.833-.048a1.011 1.011 0 0 0-1.032.778 8.706 8.706 0 0 1-1.129 2.725 1 1 0 0 0 .18 1.279l.622.556-1.704 1.704-.552-.619a.999.999 0 0 0-1.28-.18 8.676 8.676 0 0 1-2.727 1.13 1 1 0 0 0-.778 1.033l.047.827h-2.409l.047-.828a1 1 0 0 0-.778-1.033 8.663 8.663 0 0 1-2.725-1.131 1 1 0 0 0-1.281.18l-.553.621-1.705-1.704.621-.554a1 1 0 0 0 .179-1.28 8.684 8.684 0 0 1-1.128-2.725 1.032 1.032 0 0 0-1.032-.779l-.831.048v-2.411l.835.048c.465.015.924-.3 1.032-.777a8.69 8.69 0 0 1 1.13-2.721 1.001 1.001 0 0 0-.18-1.281l-.626-.559 1.705-1.704.558.626a.998.998 0 0 0 1.279.179 8.673 8.673 0 0 1 2.722-1.126 1 1 0 0 0 .778-1.032l-.047-.838h2.41l-.048.839a.999.999 0 0 0 .777 1.032c.965.218 1.88.597 2.721 1.127.41.26.954.186 1.279-.18l.56-.627 1.705 1.704-.625.558a1 1 0 0 0-.179 1.28c.53.838.909 1.754 1.128 2.721.108.478.562.794 1.032.779l.835-.048v2.411Zm1.687-4.197a1.005 1.005 0 0 0-.743-.271l-1.08.062a10.654 10.654 0 0 0-.742-1.787l.808-.72a1.002 1.002 0 0 0 .041-1.453l-3.201-3.202a.954.954 0 0 0-.735-.292.995.995 0 0 0-.718.334l-.724.811a10.625 10.625 0 0 0-1.783-.74l.061-1.084a.998.998 0 0 0-.998-1.057h-4.527a1 1 0 0 0-.998 1.057l.062 1.083c-.618.192-1.213.438-1.786.739l-.722-.81a1.005 1.005 0 0 0-1.453-.041l-3.202 3.202a1.002 1.002 0 0 0 .041 1.453l.81.722a10.664 10.664 0 0 0-.741 1.785l-1.081-.062a.984.984 0 0 0-.743.271.997.997 0 0 0-.314.727v4.528a1.002 1.002 0 0 0 1.057.999l1.076-.062c.192.618.439 1.216.741 1.79l-.805.717a1.002 1.002 0 0 0-.041 1.453l3.202 3.201c.194.195.475.303.735.293.275-.008.534-.129.718-.334l.717-.804c.574.302 1.172.55 1.79.742l-.061 1.075a.998.998 0 0 0 .998 1.057h4.527a1.001 1.001 0 0 0 .998-1.058l-.061-1.072a10.694 10.694 0 0 0 1.791-.742l.716.802a.999.999 0 0 0 .718.334.967.967 0 0 0 .735-.293l3.201-3.201a1 1 0 0 0-.041-1.453l-.806-.719c.301-.573.549-1.171.741-1.788l1.079.062a1 1 0 0 0 1.056-.999v-4.528a1 1 0 0 0-.313-.727ZM30.11 32.953c0-4.136 3.365-7.5 7.5-7.5 4.136 0 7.5 3.364 7.5 7.5s-3.364 7.5-7.5 7.5c-4.135 0-7.5-3.364-7.5-7.5Zm6.913 32.409-11.806-6.373.307.004c.121-9.264 5.586-16.521 12.444-16.521 2.573 0 5.046 1.086 7.152 3.14l1.397-1.432c-1.336-1.303-2.81-2.264-4.367-2.885a9.503 9.503 0 0 0 4.96-8.342c0-5.238-4.261-9.5-9.5-9.5-5.238 0-9.5 4.262-9.5 9.5 0 3.712 2.146 6.925 5.256 8.487-5.473 2.347-9.427 8.786-9.798 16.659L14 52.933V26.427l23.6-12.164L60 26.412v14.936h2V25.222L37.623 12 12 25.208v28.919l24.977 13.482 5.46-2.655-.875-1.798-4.539 2.206Z"/></g></svg>