<svg xmlns="http://www.w3.org/2000/svg" width="80" height="80"><defs><linearGradient id="a" x1="0%" x2="100%" y1="100%" y2="0%"><stop offset="0%" stop-color="#B0084D"/><stop offset="100%" stop-color="#FF4F8B"/></linearGradient></defs><g fill="none" fill-rule="evenodd"><path fill="url(#a)" d="M0 0h80v80H0z"/><path fill="#FFF" d="M44.553 26.37a15.894 15.894 0 0 0-6.207 2.267l-1.061-1.696a17.89 17.89 0 0 1 6.983-2.55l.285 1.98Zm-7.914 3.5a16.036 16.036 0 0 0-5.805 11.651l-1.998-.085a18.037 18.037 0 0 1 6.528-13.108l1.275 1.542Zm1.553 8.524a8.17 8.17 0 0 0-.501 4.207l-1.981.286a10.182 10.182 0 0 1 .626-5.238l1.856.745Zm.762-1.456-1.67-1.1a10.188 10.188 0 0 1 7.052-4.478l.285 1.98a8.19 8.19 0 0 0-5.667 3.598Zm.051 12.016H20.654c-1.137 0-2.108-.309-3.246-1.033C15.39 46.644 12 43.655 12 37.992c0-6.869 4.659-9.389 7.372-10.273l-.053-.913c-.002-5.658 3.745-11.458 8.713-13.552 5.817-2.47 11.979-1.246 16.482 3.274 1.396 1.397 2.546 3.1 3.428 5.077 1.79-1.506 4.22-2.03 6.462-1.294 2.817.926 4.555 3.573 4.72 7.138 2.81.66 8.812 2.97 8.812 10.632l.002.392a72.75 72.75 0 0 1-.003 1.687h-1.998c.009-.189.003-1.13.001-1.677l-.002-.402c0-6.72-5.543-8.407-7.926-8.819a1 1 0 0 1-.815-.822l-.044-.265a1.009 1.009 0 0 1-.014-.164c0-2.985-1.224-5.099-3.357-5.8-1.954-.642-4.112.088-5.38 1.812a.996.996 0 0 1-.951.396.997.997 0 0 1-.797-.654c-.832-2.339-2.028-4.298-3.553-5.824-3.908-3.923-9.25-4.985-14.288-2.845-4.203 1.772-7.494 6.89-7.494 11.651l.099 1.65a1 1 0 0 1-.752 1.03C18.176 30.057 14 32.011 14 37.991c0 4.47 2.437 6.948 4.48 8.24.817.52 1.426.722 2.174.722h18.351v2Zm16.388 15.142h2a3.827 3.827 0 0 1-3.822 3.822 3.827 3.827 0 0 1-3.823-3.822h2c0 1.005.818 1.822 1.823 1.822a1.824 1.824 0 0 0 1.822-1.822Zm10.612-4.363c0 .673-.548 1.221-1.221 1.221H42.226a1.223 1.223 0 0 1-1.221-1.22v-1.559c0-.673.548-1.22 1.221-1.22h22.558c.673 0 1.221.547 1.221 1.22v1.558ZM50.457 37.767a1 1 0 0 0 .741-.965v-2.806c0-.586.288-1.13.77-1.454.925-.622 1.783-.284 2.108-.11.692.368 1.122 1.042 1.122 1.757v2.583a1 1 0 0 0 .778.975c4.139.941 7.029 4.661 7.029 9.047v8.16h-19V46.87c0-4.473 2.533-8.046 6.452-9.103Zm14.548 17.21v-8.183c0-5.048-3.172-9.374-7.807-10.79V34.19c0-1.456-.835-2.805-2.18-3.522a3.996 3.996 0 0 0-4.165.215 3.745 3.745 0 0 0-1.655 3.114v2.068c-4.396 1.526-7.193 5.683-7.193 10.806v8.106a3.215 3.215 0 0 0-3 3.2v1.557a3.224 3.224 0 0 0 3.221 3.221h22.558a3.224 3.224 0 0 0 3.221-3.22v-1.559a3.215 3.215 0 0 0-3-3.199Z"/></g></svg>