<svg xmlns="http://www.w3.org/2000/svg" width="80" height="80"><defs><linearGradient id="a" x1="0%" x2="100%" y1="100%" y2="0%"><stop offset="0%" stop-color="#C8511B"/><stop offset="100%" stop-color="#F90"/></linearGradient></defs><g fill="none" fill-rule="evenodd"><path fill="url(#a)" d="M0 0h80v80H0z"/><path fill="#FFF" d="M37 65.99h4v-7h-4v7Zm-9 0h7v-8a1 1 0 0 1 1-1h6a1 1 0 0 1 1 1v8h7v-31H28v31Zm40 0v2H12v-2h14v-18h-4.072c-4.48 0-8.351-3.054-9.205-7.26a9.193 9.193 0 0 1-.123-.76 12.867 12.867 0 0 1-.094-1.566c0-5.763 3.794-8.989 7.573-10.189L14.12 26.04l.686-1.879 7.55 2.756a1 1 0 0 1 .597 1.282l-2.757 7.552-1.879-.686 1.721-4.713c-2.125.84-5.532 2.98-5.532 8.052 0 .453.026.9.079 1.325.024.206.058.405.098.601.666 3.28 3.713 5.66 7.245 5.66H26v-12a1 1 0 0 1 1-1h24a1 1 0 0 1 1 1v32h16Zm-25-24h2v-2h-2v2Zm-2 1v-4a1 1 0 0 1 1-1h4a1 1 0 0 1 1 1v4a1 1 0 0 1-1 1h-4a1 1 0 0 1-1-1Zm-8-1h2v-2h-2v2Zm-2 1v-4a1 1 0 0 1 1-1h4a1 1 0 0 1 1 1v4a1 1 0 0 1-1 1h-4a1 1 0 0 1-1-1Zm12 8h2v-2h-2v2Zm-2 1v-4a1 1 0 0 1 1-1h4a1 1 0 0 1 1 1v4a1 1 0 0 1-1 1h-4a1 1 0 0 1-1-1Zm-8-1h2v-2h-2v2Zm-1 2a1 1 0 0 1-1-1v-4a1 1 0 0 1 1-1h4a1 1 0 0 1 1 1v4a1 1 0 0 1-1 1h-4Zm-9.972-28.756-1.924-.55c1.228-4.296 4.261-7.925 7.917-9.473 5.64-2.389 11.618-1.2 15.985 3.18 1.347 1.35 2.451 2.986 3.297 4.877 1.616-1.336 3.739-1.817 5.764-1.225 2.789.815 4.658 3.378 5.081 6.917 2.667.64 8.265 2.865 8.518 10.268.106 3.104-.755 5.626-2.562 7.495-1.754 1.815-4.033 2.622-5.728 2.98l4.697 2.242-.861 1.805-7.254-3.463a1 1 0 0 1-.472-1.333l3.462-7.254 1.805.861-2.535 5.313c1.421-.212 3.788-.815 5.458-2.55 1.408-1.464 2.079-3.492 1.992-6.028-.225-6.55-5.419-8.145-7.642-8.527a1 1 0 0 1-.82-1.129c-.228-2.947-1.606-5.066-3.7-5.677-1.737-.507-3.604.165-4.75 1.717a1 1 0 0 1-1.748-.26c-.793-2.248-1.944-4.138-3.418-5.618-1.812-1.816-6.778-5.72-13.79-2.75-3.065 1.298-5.723 4.51-6.772 8.182Z"/></g></svg>