<svg xmlns="http://www.w3.org/2000/svg" width="80" height="80"><defs><linearGradient id="a" x1="0%" x2="100%" y1="100%" y2="0%"><stop offset="0%" stop-color="#055F4E"/><stop offset="100%" stop-color="#56C0A7"/></linearGradient></defs><g fill="none" fill-rule="evenodd"><path fill="url(#a)" d="M0 0h80v80H0z"/><path fill="#FFF" d="M50.592 31.523a1.504 1.504 0 0 1-2.114.006l-3.775-3.728a1.001 1.001 0 0 0-1.703.711V50c0 3.859-3.14 7-7 7-3.859 0-7-3.141-7-7 0-3.86 3.141-7 7-7 .901 0 1.783.172 2.624.513A.997.997 0 0 0 40 42.586V22.5c0-.712.501-1.321 1.206-1.466a.766.766 0 0 0 .061-.008c.067-.01.134-.023.203-.026l.05.002h.01c.401 0 .776.154 1.058.434l8.006 7.957c.285.283.442.66.443 1.062 0 .401-.155.779-.445 1.068Zm-6.595-11.507a3.471 3.471 0 0 0-2.435-1.014 1.875 1.875 0 0 0-.531.041 1.36 1.36 0 0 0-.143.016A3.492 3.492 0 0 0 38 22.5v18.726A8.876 8.876 0 0 0 36 41c-4.963 0-9 4.037-9 9 0 4.962 4.037 9 9 9s9-4.038 9-9V30.906l2.072 2.047a3.513 3.513 0 0 0 4.94-.021 3.482 3.482 0 0 0 1.025-2.48 3.482 3.482 0 0 0-1.033-2.478l-8.007-7.958ZM66 35.531a18.024 18.024 0 0 1-18 3.204v2.113a19.908 19.908 0 0 0 6.276 1.024c4.15 0 8.265-1.296 11.724-3.795V64c0 1.103-.897 2-2 2H16c-1.102 0-2-.897-2-2V45.281l1.421-2.324C19.563 36.176 27.54 33.044 35 34.856v-2.039c-7.987-1.735-16.414 1.58-21 8.674V16c0-1.103.898-2 2-2h48c1.103 0 2 .897 2 2v19.531ZM64 12H16c-2.206 0-4 1.794-4 4v48c0 2.205 1.794 4 4 4h48c2.206 0 4-1.795 4-4V16c0-2.206-1.794-4-4-4Z"/></g></svg>