<svg xmlns="http://www.w3.org/2000/svg" width="80" height="80"><defs><linearGradient id="a" x1="0%" x2="100%" y1="100%" y2="0%"><stop offset="0%" stop-color="#BD0816"/><stop offset="100%" stop-color="#FF5252"/></linearGradient></defs><g fill="none" fill-rule="evenodd"><path fill="url(#a)" d="M0 0h80v80H0z"/><path fill="#FFF" d="M14 59h52V21H14v38Zm54-39v40a1 1 0 0 1-1 1H13a1 1 0 0 1-1-1V20a1 1 0 0 1 1-1h54a1 1 0 0 1 1 1ZM44 48h15v-2H44v2Zm13-6h5v-2h-5v2Zm-13 0h8v-2h-8v2Zm-15 4a1.001 1.001 0 0 0-2 0 1.001 1.001 0 0 0 2 0Zm2 0a2.997 2.997 0 0 1-2 2.816V51h-2v-2.185A2.995 2.995 0 0 1 25 46c0-1.654 1.346-3 3-3s3 1.346 3 3Zm-12 7.993L36.994 54l.002-4H33v-2h3.996l.002-3H33v-2h3.999L37 40.007 19.006 40 19 53.993Zm3-15.992 12 .005V31c.001-2.303-2.803-4.323-6-4.325h-.004c-3.192 0-5.992 2.021-5.994 4.325L22 38.001Zm-5 16.991L17.006 39a1 1 0 0 1 1-1l1.994.001.002-7.001c.002-3.488 3.588-6.325 7.994-6.325H28c4.412.002 8.001 2.84 8 6.325v7.007l2 .001a1 1 0 0 1 1 1L38.994 55a1 1 0 0 1-1 1L18 55.992a1 1 0 0 1-1-1ZM60 36h2v-2h-2v2Zm-16 0h11v-2H44v2Z"/></g></svg>