<svg xmlns="http://www.w3.org/2000/svg" width="80" height="80"><defs><linearGradient id="a" x1="0%" x2="100%" y1="100%" y2="0%"><stop offset="0%" stop-color="#1B660F"/><stop offset="100%" stop-color="#6CAE3E"/></linearGradient></defs><g fill="none" fill-rule="evenodd"><path fill="url(#a)" d="M0 0h80v80H0z"/><path fill="#FFF" d="M40 30.012c2.206 0 4-1.793 4-3.998a4.003 4.003 0 0 0-4-3.999c-2.206 0-4 1.793-4 3.999a4.003 4.003 0 0 0 4 3.998ZM27 41.01a4.003 4.003 0 0 0-4-3.999c-2.206 0-4 1.793-4 3.999a4.003 4.003 0 0 0 4 3.998c2.206 0 4-1.793 4-3.998Zm26 0a4.003 4.003 0 0 0 4 3.998c2.206 0 4-1.793 4-3.998a4.003 4.003 0 0 0-4-3.999c-2.206 0-4 1.793-4 3.999Zm-7 1v19.924l11.871-5.844A5.626 5.626 0 0 0 61 51.03v-2.025h2v2.025a7.617 7.617 0 0 1-4.24 6.848l-18.319 9.018a.988.988 0 0 1-.903-.01l-17.312-9.015A7.61 7.61 0 0 1 18 51.032v-2.026h2v2.025a5.626 5.626 0 0 0 3.135 5.06L34 61.749v-19.74h-5.09c-.478 2.831-2.943 4.998-5.91 4.998-3.309 0-6-2.69-6-5.998a6.005 6.005 0 0 1 6-5.998c2.967 0 5.432 2.166 5.91 4.998H35a1 1 0 0 1 1 1V62.79l2.997 1.56L39 31.923c-2.833-.478-5-2.942-5-5.908a6.005 6.005 0 0 1 6-5.998c3.309 0 6 2.69 6 5.998 0 2.966-2.167 5.43-5 5.908l-.003 32.473L44 62.917V41.01a1 1 0 0 1 1-1h6.09c.478-2.832 2.943-4.998 5.91-4.998 3.309 0 6 2.69 6 5.998a6.005 6.005 0 0 1-6 5.998c-2.967 0-5.432-2.167-5.91-4.999H46Zm17-22.502V34.01h-2V20.494c-8.917-.182-18.153-1.908-21.064-4.646C36.933 18.393 28.088 20.28 20 20.49V34.01h-2V19.507a1 1 0 0 1 .991-1c11.416-.1 19.579-3.213 20.009-4.513.001-.035.004-.068.008-.101a.983.983 0 0 1 .994-.893c.552 0 .998.466.998 1.018.248 1.25 7.919 4.392 21.008 4.49a1 1 0 0 1 .992.999Z"/></g></svg>